<svg width="798" height="506" viewBox="0 0 798 506" fill="none" xmlns="http://www.w3.org/2000/svg">
<g clip-path="url(#clip0_43_1745)">
<mask id="mask0_43_1745" style="mask-type:luminance" maskUnits="userSpaceOnUse" x="0" y="0" width="798" height="823">
<path d="M0 0H797.952V822.607H0V0Z" fill="white"/>
</mask>
<g mask="url(#mask0_43_1745)">
<path d="M123.22 150.418C123.941 150.178 124.589 149.806 125.151 149.299C125.718 148.791 126.157 148.188 126.47 147.495C126.905 146.149 127.744 144.449 129.013 144.957C131.347 145.718 131.551 148.868 136.631 145.745C331.446 50.5562 263.74 83.5459 307.371 20.2587C308.337 18.8718 309.434 17.6028 310.671 16.4471C336.604 -5.23929 438.238 0.652531 461.044 1.77198C462.743 1.76745 464.434 1.67227 466.124 1.49098C490.503 -0.235773 508.763 61.6057 527.608 76.793C528.981 77.781 530.436 78.6285 531.977 79.331C580.965 102.441 631.607 123.293 679.277 148.764C680.518 149.426 681.484 148.764 681.461 147.418C681.461 145.337 681.611 145.564 684.407 147.218C684.693 147.409 684.937 147.64 685.15 147.916C685.363 148.188 685.527 148.483 685.64 148.809C685.758 149.131 685.821 149.466 685.83 149.811C685.844 150.155 685.798 150.491 685.703 150.821C684.711 154.986 687.883 157.656 690.526 160.067C691.708 161.268 692.687 162.614 693.471 164.105C702.069 181.917 708.65 200.449 713.204 219.697C713.535 221.07 713.839 223.304 714.12 224.777C718.87 248.979 774.031 306.578 796.991 360.724C797.254 361.468 797.349 362.229 797.285 363.013C797.217 363.797 796.991 364.536 796.605 365.22C793.025 370.808 791.226 372.635 789.318 372.458C787.795 372.109 786.304 372.222 784.849 372.789C741.521 399.81 706.474 442.503 658.275 460.156C656.684 460.776 655.052 460.94 653.371 460.636C652.827 460.514 652.36 460.251 651.975 459.852C651.585 459.448 651.34 458.973 651.236 458.424C651.286 456.775 651.245 455.12 651.109 453.475C648.929 445.222 644.406 437.422 640.953 428.38C640.445 427.062 640.037 427.139 640.037 428.535C640.037 449.514 641.487 469.043 635.238 489.053C634.735 490.662 634.399 492.307 634.222 493.984C632.749 512.647 635.215 538.399 631.684 600.394C631.177 623.962 622.946 648.037 630.896 670.947C631.354 672.293 632.319 674.35 632.854 675.642C638.895 689.814 633.334 706.474 641.08 719.781C649.002 730.957 633.157 750.006 645.906 793.714C646.491 795.3 646.985 796.918 647.379 798.563C648.036 803.159 646.16 810.093 641.945 807.501C640.749 806.767 640.015 804.555 638.999 803.59C632.065 796.964 592.422 811.39 578.984 813.42C577.616 813.624 575.354 813.878 573.908 814.131C539.441 820.354 506.148 802.883 471.509 806.844C470.113 806.993 467.851 807.224 466.428 807.302C445.983 808.57 427.039 814.485 407.333 819.031C362.61 829.346 383.634 810.016 370.432 807.655C368.723 807.469 367.028 807.551 365.352 807.909C306.941 819.212 253.76 829.446 196.415 805.752C194.829 805.19 193.206 804.809 191.538 804.609C185.189 803.821 176.578 800.059 177.212 793.179C177.339 791.783 178.078 789.599 178.304 788.226C178.758 786.499 178.658 784.808 178.001 783.145C177.18 781.699 176.578 780.167 176.197 778.549C175.386 769.254 178.536 758.866 180.489 749.521C180.793 748.152 181.327 745.968 181.658 744.594C187.473 720.619 170.79 697.356 174.216 674.4C174.534 672.741 175.05 671.151 175.766 669.623C180.729 659.213 185.569 648.766 190.292 638.283C190.899 636.733 191.026 635.143 190.673 633.511C169.317 555.848 214.775 527.735 179.573 423.939C179.143 422.616 178.332 422.593 177.72 423.939C171.044 437.599 156.061 452.206 156.26 466.12C156.278 466.274 156.278 466.423 156.26 466.573C156.242 466.727 156.206 466.872 156.151 467.017C156.101 467.158 156.029 467.294 155.943 467.421C155.857 467.543 155.757 467.661 155.644 467.76C155.53 467.865 155.408 467.951 155.276 468.023C155.14 468.096 155 468.15 154.85 468.191C154.705 468.227 154.556 468.25 154.402 468.25C154.248 468.255 154.098 468.236 153.949 468.205C127.358 462.87 101.661 447.175 77.1283 434.476C75.6372 433.683 74.2413 432.754 72.936 431.684C47.1072 409.613 25.5703 382.669 1.74926 358.286C1.24166 357.733 0.928942 357.085 0.811105 356.342C0.688736 355.598 0.783913 354.887 1.08757 354.198C12.8485 330.173 10.4601 337.588 7.33743 331.342C6.70292 330.096 7.46433 329.384 8.76053 329.892C15.3095 332.434 13.5102 328.065 99.3994 213.451C100.347 212.074 100.999 210.564 101.353 208.928C107.553 175.916 123.066 163.063 121.67 153.717C121.557 153.06 121.639 152.426 121.924 151.823C122.21 151.216 122.64 150.749 123.22 150.418ZM27.1974 327.1C120.247 388.765 133.023 412.459 154.483 421.981C154.782 422.117 155.1 422.185 155.426 422.185C155.757 422.18 156.07 422.112 156.369 421.977C156.668 421.841 156.926 421.65 157.139 421.401C157.357 421.156 157.511 420.875 157.606 420.558C181.812 346.607 156.464 411.698 146.992 415.278C145.695 415.758 145.419 413.551 146.18 412.355C183.131 352.725 165.202 383.585 146.511 386.603C145.138 386.834 143.969 385.638 145.061 384.622C151.361 377.892 182.066 369.131 147.604 376.292C146.23 376.573 144.476 375.658 145.392 374.593L146.611 373.247C146.833 373.047 146.987 372.807 147.073 372.522C147.155 372.236 147.159 371.946 147.082 371.66C147.005 371.37 146.856 371.126 146.638 370.922C146.421 370.718 146.167 370.586 145.872 370.527C128.555 364.994 92.1343 357.955 86.5235 352.14C85.5581 351.125 87.158 350.137 88.5312 350.491C116.468 357.729 145.215 364.79 174.343 364.685C174.688 364.685 175.019 364.622 175.336 364.491C175.653 364.364 175.939 364.182 176.188 363.947C176.437 363.711 176.637 363.439 176.782 363.126C176.931 362.818 177.013 362.492 177.035 362.147C178.536 330.35 158.775 305.563 151.438 275.492C151.107 274.124 152.072 272.601 153.137 273.512C164.209 283.138 191.235 378.78 130.689 165.859C130.304 164.513 129.493 163.317 128.858 163.317C128.224 163.317 127.358 164.409 126.928 165.859C106.053 231.304 59.8063 281.919 18.5364 335.253C18.4458 335.362 18.3733 335.485 18.3143 335.612C18.2554 335.743 18.2101 335.874 18.1829 336.015C18.1602 336.155 18.1512 336.296 18.1602 336.436C18.1693 336.581 18.1965 336.717 18.2418 336.853C18.2871 336.989 18.3461 337.116 18.4231 337.234C18.4956 337.356 18.5863 337.465 18.6905 337.565C18.7947 337.66 18.9081 337.742 19.035 337.814C19.1573 337.882 19.2888 337.932 19.4247 337.968C21.5594 338.657 22.3706 338.884 22.3706 339.264C22.3706 340.688 19.8326 340.814 18.5092 340.23C15.4908 338.834 15.9712 339.115 12.0101 345.691C11.2985 346.883 11.3484 347.418 12.1642 346.833C12.9754 346.249 14.2173 346.833 15.0059 347.953C28.2126 367.989 49.9534 380.688 68.1863 396.003C69.4961 397.063 70.8648 398.038 72.3015 398.921C98.9915 415.101 118.013 441.565 145.745 455.732C146.058 455.882 146.389 455.972 146.733 456.004C147.078 456.031 147.418 455.995 147.749 455.9C148.084 455.805 148.388 455.655 148.664 455.447C148.94 455.238 149.172 454.984 149.353 454.694L164.44 429.93C164.518 429.813 164.576 429.69 164.622 429.559C164.667 429.427 164.694 429.291 164.703 429.151C164.712 429.01 164.708 428.874 164.681 428.734C164.658 428.598 164.617 428.467 164.558 428.34C164.499 428.213 164.427 428.095 164.336 427.986C164.25 427.877 164.15 427.782 164.037 427.701C163.924 427.615 163.801 427.551 163.675 427.497C163.543 427.447 163.412 427.411 163.271 427.392C132.058 420.612 113.164 390.514 87.3121 373.528C65.5984 361.767 49.5183 342.745 27.9316 330.708C27.0569 330.051 26.4496 329.203 26.1051 328.165C25.5703 326.747 26.155 326.339 27.1974 327.1ZM618.754 452.813C623.835 457.894 622.946 457.894 624.723 447.887C624.977 446.514 624.265 446.033 623.123 446.845L618.886 449.713C618.65 449.917 618.387 450.044 618.083 450.103C617.784 450.162 617.485 450.139 617.195 450.035C616.91 449.935 616.665 449.763 616.465 449.532C616.266 449.296 616.144 449.029 616.089 448.725C614.666 441.107 620.408 433.334 623.277 426.069C623.785 424.777 624.623 422.67 625.231 421.396C642.756 384.446 634.299 361.943 639.176 333.753C639.724 332.262 640.522 330.916 641.565 329.715C649.509 317.678 660.178 238.288 674.808 178.101C678.157 167.078 676.789 166.163 668.001 162.605C667.697 162.478 667.384 162.419 667.053 162.424C666.727 162.433 666.414 162.51 666.12 162.655C665.825 162.795 665.576 162.995 665.367 163.249C665.159 163.502 665.009 163.788 664.928 164.105C654.363 202.198 649.509 259.544 644.356 269.655C643.722 270.897 642.806 270.036 643.087 268.662C650.094 233.311 650.475 196.764 662.512 161.59C662.621 161.254 662.671 160.91 662.662 160.561C662.648 160.208 662.58 159.868 662.453 159.541C662.326 159.21 662.15 158.916 661.918 158.648C661.692 158.381 661.424 158.159 661.116 157.982C562.632 104.906 550.695 106.606 548.152 99.9025C545.007 91.5996 537.03 91.2189 530.73 88.1415C529.461 87.507 528.777 87.992 529.13 89.338C549.448 171.062 595.01 207.532 510.313 155.367C510 155.19 509.669 155.064 509.316 154.991C508.967 154.918 508.613 154.896 508.255 154.932C507.897 154.973 507.553 155.059 507.227 155.204C506.896 155.349 506.597 155.539 506.325 155.775L505.971 156.129C505.708 156.36 505.5 156.627 505.346 156.94C505.192 157.253 505.105 157.583 505.092 157.932C505.074 158.281 505.128 158.621 505.246 158.948C505.368 159.274 505.55 159.559 505.794 159.813C506.655 160.788 507.63 161.635 508.718 162.351C509.801 163.067 510.966 163.625 512.203 164.033C513.436 164.441 514.705 164.676 516.005 164.744C517.306 164.812 518.589 164.708 519.862 164.436C521.235 164.182 522.097 164.944 521.793 166.312C518.847 179.623 518.897 164.74 498.937 177.516C476.213 190.791 453.357 203.775 430.365 216.474C429.69 216.891 429.124 217.422 428.657 218.065C428.19 218.704 427.864 219.411 427.673 220.182C418.201 271.15 427.673 325.55 428.639 377.489C428.412 386.68 428.435 656.852 427.066 688.545C427.066 689.941 427.066 692.203 427.066 693.626C429.4 726.638 434.834 758.309 433.769 791.756C433.71 792.042 433.737 792.323 433.846 792.59C433.96 792.862 434.132 793.075 434.376 793.243C434.617 793.406 434.884 793.487 435.174 793.492C435.464 793.492 435.736 793.415 435.976 793.256C461.601 782.257 488.522 784.672 514.428 791.783C515.774 792.137 515.747 792.441 514.428 792.418C486.492 791.833 466.936 783.707 436.815 795.237C436.09 795.545 435.473 795.998 434.961 796.596C434.449 797.195 434.091 797.875 433.896 798.641C433.262 801.713 432.931 805.421 437.123 804.809C509.552 794.371 524.866 807.578 566.643 808.72C568.347 808.725 570.038 808.598 571.724 808.339C592.218 804.659 612.355 798.79 632.672 794.145C633.393 793.95 633.996 793.574 634.485 793.016C634.975 792.454 635.269 791.806 635.365 791.072C636.457 774.742 631.557 757.905 633.561 741.422C635.872 726.185 618.07 685.726 618.985 653.321C619.167 651.608 619.457 649.917 619.846 648.241C620.916 642.729 617.539 638.084 618.12 633.003C618.274 631.63 618.958 629.446 619.212 627.923C626.273 590.895 627.062 553.205 626.985 515.57C626.985 514.17 626.4 513.993 625.716 515.24C619.189 526.869 596.306 568.773 589.499 557.293C588.787 556.102 589.653 555.313 591.076 555.263C603.771 554.755 614.186 524.558 621.881 512.928C622.829 511.541 623.676 510.091 624.419 508.586C628.281 499.495 626.096 489.692 626.35 480.342C626.35 478.946 626.069 478.869 625.561 480.192C617.104 502.16 607.659 524.127 591.303 541.322C563.924 573.242 544.776 616.316 507.29 637.191C506.048 637.88 505.613 637.395 506.325 636.203C526.642 601.487 561.767 575.735 580.33 539.11C592.875 513.513 610.809 490.072 616.574 461.778C616.851 460.409 616.42 460.228 615.708 461.447C612.078 467.67 609.916 474.554 605.806 480.469C605.017 481.638 604.333 481.384 604.46 479.988C604.99 475.057 606.177 470.294 608.031 465.698C609.88 461.098 612.323 456.838 615.355 452.913C615.582 452.696 615.84 452.528 616.13 452.406C616.42 452.283 616.719 452.22 617.036 452.211C617.349 452.202 617.657 452.247 617.952 452.351C618.247 452.455 618.518 452.609 618.754 452.813ZM163.298 260.459C158.444 228.281 151.741 196.56 139.881 166.036C139.373 164.713 137.696 163.752 136.654 164.69C131.578 169.285 141.304 187.369 143.334 196.107C143.665 197.476 144.046 199.687 144.454 201.033C192.322 357.348 166.498 308.867 187.119 304.752C188.488 304.471 189.25 305.563 188.515 306.76C184.985 312.371 177.416 316.916 178.613 323.266C179.125 324.879 179.841 326.393 180.77 327.812C188.923 342.111 187.727 359.405 190.446 375.304C203.526 489.18 306.837 584.7 322.763 632.595C323.216 633.919 322.532 634.449 321.389 633.638C315.548 629.5 321.389 629.296 292.134 588.457C254.418 541.703 225.036 489.841 197.022 437.019C196.361 435.772 195.599 435.899 195.527 437.295C193.927 461.678 226.685 505.078 238.038 562.782C238.075 562.932 238.097 563.081 238.097 563.235C238.102 563.389 238.084 563.539 238.047 563.688C238.011 563.838 237.957 563.983 237.889 564.119C237.816 564.255 237.73 564.382 237.63 564.495C237.526 564.608 237.413 564.713 237.286 564.799C237.164 564.885 237.028 564.957 236.883 565.012C236.738 565.066 236.593 565.102 236.439 565.121C236.284 565.139 236.135 565.139 235.981 565.116H234.839C234.549 565.053 234.263 565.071 233.987 565.175C233.706 565.279 233.479 565.451 233.307 565.692C233.13 565.932 233.03 566.199 233.017 566.494C232.999 566.793 233.067 567.069 233.212 567.328C252.233 618.274 266.228 670.004 302.876 712.47C303.791 713.508 303.41 714.65 302.037 714.424C271.563 709.343 210.279 509.955 198.115 488.826C197.403 487.607 196.691 488.142 197 489.51C211.548 554.148 215.282 568.243 214.979 571.416C214.825 572.812 212.667 571.239 212.287 569.866C208.298 555.213 205.275 540.253 201.011 525.627C200.603 524.254 200.199 524.304 200.095 525.627C196.796 567.455 185.443 590.922 199.157 634.3C209.898 662.236 190.623 689.56 195.323 716.785C195.78 718.412 196.129 720.062 196.361 721.739C196.447 723.438 196.093 725.038 195.296 726.538C184.654 742.691 195.853 762.524 185.669 779.388C182.574 785.053 187.246 794.04 193.288 796.479C279.639 833.688 350.241 795.083 374.289 801.432C375.635 801.79 376.501 801.156 376.324 799.783C373.047 776.011 371.039 752.902 373.985 729.357C374.162 727.961 373.301 727.35 372.082 728.011C278.293 777.992 261.429 789.776 251.803 787.949C251.648 787.917 251.503 787.868 251.363 787.8C251.222 787.732 251.091 787.646 250.973 787.546C250.855 787.442 250.751 787.328 250.66 787.197C250.574 787.07 250.502 786.929 250.452 786.784C250.398 786.635 250.366 786.485 250.352 786.327C250.339 786.173 250.348 786.018 250.375 785.864C250.402 785.71 250.447 785.561 250.515 785.42C250.579 785.28 250.66 785.148 250.76 785.026C252.614 782.284 252.414 782.792 245.022 785.18C243.704 785.611 242.126 784.749 242.888 783.58C251.83 769.762 370.758 733.445 372.666 717.546C372.816 716.151 371.067 715.897 369.974 716.785C338.023 742.183 296.095 754.094 258.456 770.12C257.16 770.654 255.002 771.389 253.706 771.896C248.376 773.927 243.015 777.638 237.504 776.977C237.204 776.972 236.933 776.882 236.688 776.705C236.443 776.528 236.271 776.297 236.176 776.011C236.076 775.726 236.071 775.44 236.158 775.15C236.244 774.86 236.402 774.625 236.642 774.434C246.622 763.135 264.375 758.64 277.681 750.613C278.878 749.902 278.696 749.371 277.301 749.575C258.483 752.267 241.188 764.151 223.232 767.146C221.836 767.378 221.152 766.435 222.04 765.343C234.204 750.64 301.733 747.568 365.809 700.913C367.223 699.971 368.442 698.82 369.467 697.46C372.005 693.295 370.609 687.503 371.343 682.83C372.286 671.785 375.431 660.863 373.505 649.664C373.206 647.982 373.102 646.287 373.197 644.583C374.112 635.745 376.578 627.007 373.197 618.097C372.893 617.209 372.793 616.298 372.898 615.364C372.997 614.431 373.292 613.565 373.781 612.763C378.685 607.224 376.777 580.358 373.224 536.572C373.097 534.877 373.097 533.187 373.224 531.492C379.496 471.631 373.605 278.443 369.285 248.675C368.9 247.008 369.086 245.408 369.847 243.876C371.37 242.049 373.831 242.684 374.57 240.141C374.951 238.795 374.797 236.484 375.028 235.065C376.374 226.454 381.962 220.182 387.496 213.474C387.704 213.225 387.849 212.939 387.94 212.627C388.026 212.309 388.049 211.992 388.003 211.67C387.953 211.344 387.845 211.045 387.672 210.768C387.505 210.492 387.283 210.256 387.015 210.075C379.623 204.691 370.328 195.522 365.429 194.403C364.083 194.072 363.647 195.776 364.409 196.941C367.595 201.872 370.758 206.798 373.908 211.725C374.67 212.917 374.112 213.959 372.816 213.402C368.093 211.444 365.071 203.748 361.717 198.976L358.748 194.86C348.311 180.231 324.816 184.853 314.306 169.462C314.115 169.154 313.884 168.882 313.608 168.646C313.331 168.411 313.023 168.229 312.688 168.094C312.348 167.962 311.999 167.885 311.636 167.867C311.274 167.849 310.92 167.89 310.571 167.989C305.921 170.124 302.953 176.12 297.061 176.954C295.665 177.135 295.257 176.093 296.118 175.001C307.449 160.652 281.058 190.469 270.14 192.196C268.513 192.223 266.981 192.622 265.544 193.388C263.002 195.468 261.098 198.468 258.102 199.914C256.856 200.526 256.045 199.583 256.602 198.314C259.979 190.695 266.763 184.776 271.839 177.996C272.655 176.854 272.197 175.204 270.874 175.735C265.798 177.792 255.814 190.695 244.692 194.706C243.373 195.191 242.407 194.326 242.611 192.93C247.687 158.263 261.198 125.119 271.563 91.5452C271.993 90.1991 271.332 89.7187 270.14 90.4529C228.743 115.851 189.1 141.73 145.238 162.075C144.939 162.206 144.667 162.383 144.426 162.605C144.191 162.832 143.996 163.085 143.842 163.38C143.692 163.67 143.597 163.978 143.552 164.305C143.506 164.631 143.52 164.953 143.588 165.275C153.672 196.075 161.182 227.488 166.117 259.521C166.317 260.69 167.006 262.517 166.117 263.052C165.225 263.582 163.298 261.783 163.298 260.459ZM386.784 816.035C418.278 810.755 413.932 812.758 414.036 803.54C414.059 803.39 414.059 803.241 414.041 803.091C414.027 802.942 413.991 802.801 413.936 802.661C413.882 802.52 413.809 802.389 413.723 802.266C413.633 802.144 413.533 802.035 413.415 801.94C413.297 801.845 413.175 801.763 413.034 801.7C412.898 801.636 412.758 801.591 412.608 801.564C412.463 801.541 412.314 801.532 412.164 801.546C412.015 801.555 411.865 801.586 411.725 801.636C404.818 803.44 401.971 804.328 400.752 804.405C399.533 804.482 400.576 802.244 401.894 801.863L410.605 798.867C411.33 798.609 411.924 798.174 412.382 797.562C412.844 796.945 413.098 796.257 413.148 795.491C413.148 786.118 410.125 776.596 414.444 767.681C415.051 766.435 415.459 766.589 415.228 767.985C413.823 776.601 414.177 785.144 416.298 793.61C416.375 793.941 416.52 794.24 416.719 794.512C416.923 794.788 417.168 795.01 417.458 795.182C417.748 795.359 418.061 795.468 418.396 795.518C418.731 795.568 419.067 795.55 419.393 795.464C427.701 793.383 427.701 792.622 427.723 783.53C430.084 754.398 422.643 726.158 419.697 697.51C416.778 622.566 423.762 547.672 421.627 472.646C417.616 439.634 418.935 406.771 420.281 373.6C418.808 324.127 414.113 273.87 420.281 224.551C420.463 223.15 419.42 221.12 418.201 221.804C408.602 227.116 416.243 315.774 412.409 330.096C412.056 331.469 411.04 330.962 411.013 329.538C410.225 295.583 408.167 261.601 413.247 226.785C413.451 225.385 412.713 224.954 411.598 225.793L409.59 227.315C409.327 227.546 409.105 227.809 408.924 228.108C408.747 228.408 408.616 228.725 408.539 229.069C408.462 229.409 408.439 229.754 408.471 230.098C408.502 230.447 408.588 230.782 408.729 231.1C412.586 240.88 401.872 251.164 392.345 244.461C391.18 243.649 390.392 243.953 390.392 245.376V313.209C390.392 314.605 391.307 315.063 392.472 314.301C419.244 296.979 410.786 348.129 390.569 326.212C389.63 325.169 388.919 325.423 388.919 326.819C388.919 376.193 388.003 294.364 388.384 234.354C388.384 232.953 387.7 232.677 386.938 233.869C374.951 252.587 386.381 292.715 384.396 314.097C382.139 376.193 388.08 438.542 386.023 500.786C384.627 566.385 381.377 631.861 381.504 697.714C380.004 736.722 393.415 775.78 384.958 814.027C384.885 814.281 384.872 814.535 384.926 814.793C384.98 815.047 385.094 815.278 385.261 815.478C385.429 815.681 385.633 815.831 385.878 815.931C386.118 816.026 386.372 816.062 386.635 816.035H386.784ZM722.55 268.662C721.562 275.624 729.815 297.868 724.734 309.601C724.675 309.751 724.598 309.891 724.503 310.023C724.408 310.154 724.299 310.272 724.177 310.376C724.05 310.481 723.914 310.571 723.769 310.639C723.624 310.712 723.474 310.762 723.316 310.793C723.157 310.83 722.994 310.839 722.831 310.834C722.672 310.825 722.514 310.798 722.359 310.753C722.201 310.707 722.056 310.644 721.915 310.558C721.775 310.476 721.652 310.376 721.535 310.263C717.496 306.275 717.805 300.587 717.016 295.026C680.192 55.1791 674.427 216.855 647.583 332.33C647.275 333.676 648.268 334.873 649.206 333.83C652.89 329.842 657.64 315.09 666.732 305.105C667.67 304.068 669.827 303.71 670.643 302.567C675.719 295.33 676 248.168 681.538 224.474C681.865 223.1 682.807 222.924 683.541 224.116C688.622 232.142 687.049 232.6 686.995 184.119C686.995 182.719 688.241 181.223 689.538 181.985C700.075 188.638 689.791 262.616 689.791 281.031C689.791 282.427 689.791 284.688 689.637 286.111C686.868 314.705 685.014 370.274 659.367 385.157C658.148 385.842 657.182 385.157 657.409 383.784C660.482 365.071 679.884 367.785 684.026 276.458C684.026 275.039 683.773 274.985 683.365 276.331C677.192 296.245 673.892 316.966 663.836 335.634C663.174 336.853 662.258 338.934 661.728 340.23C656.648 352.929 643.214 363.543 643.948 376.981C643.948 378.377 644.764 378.477 645.399 377.235C654.033 360.294 656.774 354.529 658.093 352.702C658.909 351.583 660.078 353.337 659.77 354.706C652.841 385.565 637.195 375.912 649.256 420.739C649.478 421.51 649.849 422.199 650.375 422.806C650.896 423.413 651.526 423.885 652.256 424.215C665.204 428.077 683.111 400.852 767.835 342.364C769.222 341.399 770.541 340.348 771.796 339.215C776.392 334.923 776.365 333.984 772.15 327.431C756.151 303.737 741.979 279.177 724.635 256.498C723.769 255.379 723.239 255.61 723.57 256.978C727.327 273.031 742.641 287.457 737.891 304.471C737.51 305.817 736.264 306.225 735.58 305.16C734.977 303.66 734.714 302.101 734.791 300.483C734.338 289.791 727.884 279.431 724.635 268.966C724.077 267.724 722.731 267.294 722.55 268.662ZM354.026 173.555C353.772 173.809 352.603 173.555 351.279 172.97C343.357 169.947 328.043 168.828 329.339 159.84C329.665 158.159 329.81 156.468 329.769 154.76C328.958 146.48 326.57 122.631 323.724 115.978C323.193 114.682 321.947 115.393 321.671 116.767C318.774 130.277 317.351 86.4419 313.898 76.6117C313.413 75.2928 312.525 75.8503 312.629 77.2507C314.328 99.345 315.167 106.887 314.963 109.452C314.963 110.875 312.425 110.263 311.305 109.452C309.479 108.26 309.683 108.817 308.767 114.532C308.563 115.928 307.829 117.07 307.14 116.916C306.456 116.767 305.871 115.647 305.849 114.378C305.414 83.419 306.864 51.6213 314.56 21.4507C314.913 20.0819 314.56 19.9278 313.821 21.1198C283.346 69.3738 274.051 157.679 265.009 168.193C264.094 169.258 263.002 168.044 263.255 166.643C272.274 117.551 310.394 11.0629 251.522 179.342C251.068 180.666 251.852 181.88 253.099 181.173C261.071 176.954 284.566 153.591 300.487 138.834C300.791 138.58 301.104 138.34 301.43 138.122C301.761 137.9 302.101 137.701 302.45 137.524C302.803 137.343 303.166 137.184 303.533 137.044C303.904 136.908 304.281 136.79 304.666 136.699C305.047 136.604 305.436 136.531 305.831 136.482C306.22 136.436 306.615 136.409 307.009 136.405C307.403 136.405 307.798 136.423 308.192 136.468C308.582 136.509 308.971 136.577 309.357 136.663C309.742 136.754 310.123 136.862 310.494 136.998C310.866 137.13 311.228 137.284 311.582 137.461C311.935 137.633 312.28 137.828 312.611 138.045C312.942 138.258 313.259 138.494 313.562 138.743C313.866 138.997 314.156 139.264 314.428 139.55C314.7 139.835 314.958 140.139 315.194 140.452C315.43 140.769 315.652 141.095 315.851 141.44C316.051 141.78 316.227 142.129 316.386 142.491C317.147 144.105 317.755 145.773 318.217 147.495C320.474 156.487 317.197 168.297 326.139 172.463C327.408 173.043 329.593 173.732 330.889 174.239C348.437 181.069 367.001 185.515 381.935 197.806C383.027 198.695 383.231 198.541 382.415 197.376C366.394 174.516 350.391 151.66 332.892 130.1C332.004 129.008 331.347 129.262 331.397 130.658C333.073 174.316 328.854 157.325 352.426 171.801C353.491 172.463 354.252 173.296 354.026 173.555ZM549.045 168.828C538.884 134.746 501.552 38.7998 477.423 13.1749C476.462 12.1552 475.927 12.486 476.258 13.8593C485.78 52.9175 479.839 92.9683 481.516 133.046C481.511 133.196 481.525 133.35 481.556 133.499C481.593 133.644 481.642 133.79 481.71 133.925C481.783 134.061 481.869 134.188 481.969 134.302C482.073 134.415 482.186 134.515 482.313 134.601C482.44 134.682 482.576 134.75 482.721 134.805C482.862 134.855 483.011 134.886 483.165 134.9C483.315 134.909 483.469 134.904 483.618 134.877C483.768 134.855 483.913 134.809 484.054 134.746C495.887 131.292 494.21 141.984 547.545 170.074C548.737 170.736 549.321 170.174 549.045 168.828ZM340.184 116.563C339.931 115.978 340.665 114.863 341.857 114.025C374.874 92.5876 410.986 77.2507 448.118 64.5742C449.437 64.1165 449.387 63.7131 447.991 63.7131C426.608 63.9669 407.356 76.4123 387.038 82.9386C385.443 83.487 383.875 84.1124 382.343 84.8149C369.44 90.811 351.256 94.2373 342.695 105.386C341.739 106.769 340.579 107.956 339.219 108.944C331.193 113.286 322.509 104.398 352.752 146.226C357.352 152.575 357.579 152.371 364.309 148.437C443.622 104.167 445.199 102.622 440.45 102.264C439.049 102.264 438.696 101.122 439.738 100.183C450.452 90.5073 471.228 88.5993 471.001 72.6506C471.037 72.3333 470.983 72.0342 470.838 71.7532C470.697 71.4677 470.484 71.2456 470.208 71.0915C469.927 70.9374 469.628 70.8694 469.31 70.8966C468.993 70.9193 468.712 71.0326 468.458 71.2275C462.24 74.2278 462.036 74.0465 465.082 68.4085C465.263 68.132 465.376 67.8238 465.422 67.493C465.463 67.1621 465.431 66.8358 465.322 66.5185C465.218 66.2058 465.046 65.9248 464.814 65.6892C464.579 65.4489 464.307 65.2722 463.99 65.1589C446.011 61.1479 367.967 101.783 342.849 116.336C341.63 117.02 340.461 117.147 340.184 116.563ZM663.201 452.483C705.183 430.769 740.153 398.668 778.373 371.216C779.515 370.4 781.473 369.258 782.642 368.47C792.925 361.59 782.157 350.948 778.676 341.168C778.644 341.023 778.599 340.887 778.531 340.751C778.463 340.62 778.382 340.497 778.282 340.388C778.182 340.275 778.073 340.18 777.951 340.098C777.824 340.012 777.693 339.949 777.552 339.899C777.412 339.849 777.267 339.822 777.122 339.808C776.972 339.799 776.823 339.808 776.677 339.836C776.532 339.858 776.392 339.903 776.256 339.967C776.125 340.03 775.998 340.112 775.884 340.207C665.535 418.935 674.554 423.051 654.11 428.331C653.625 428.458 653.271 428.992 652.913 429.6C652.813 429.876 652.768 430.162 652.777 430.456C652.791 430.751 652.859 431.032 652.981 431.299C653.108 431.567 653.276 431.798 653.493 431.997C653.711 432.197 653.96 432.346 654.236 432.446C658.782 434.476 666.02 435.292 655.836 436.33C655.687 436.334 655.542 436.353 655.401 436.393C655.256 436.434 655.12 436.489 654.993 436.566C654.866 436.638 654.749 436.729 654.644 436.833C654.54 436.937 654.449 437.055 654.372 437.182C654.3 437.309 654.241 437.445 654.2 437.585C654.159 437.726 654.137 437.871 654.132 438.02C654.132 438.17 654.146 438.315 654.182 438.46C654.214 438.605 654.268 438.741 654.336 438.872L659.897 451.34C660.029 451.644 660.219 451.911 660.459 452.138C660.704 452.365 660.98 452.532 661.298 452.641C661.61 452.75 661.932 452.791 662.263 452.764C662.598 452.736 662.906 452.641 663.201 452.483ZM384.246 186.884L394.711 201.233C395.545 202.352 396.587 202.148 397.58 201.233C399.964 198.849 404.156 197.222 401.591 193.945C401.092 193.397 400.77 192.753 400.63 192.023C400.489 191.294 400.544 190.582 400.802 189.884C405.452 181.627 416.828 180.358 420.386 170.709C420.866 169.412 419.724 167.763 419.42 166.389C419.42 165.932 419.624 165.628 420.105 165.401C421.627 164.694 423.069 163.851 424.424 162.859C437.123 151.891 445.779 136.754 457.948 124.766C458.936 123.801 458.605 122.885 457.364 122.228C452.714 119.889 463.813 115.724 464.398 113.132C465.535 107.866 466.274 102.54 466.605 97.1605C466.732 95.7646 465.843 95.0757 464.547 95.6604C428.285 112.194 400.295 139.523 367.686 159.94C366.494 160.674 366.34 162.274 367.686 162.224C374.697 161.893 395.219 146.325 420.358 135C420.648 134.855 420.952 134.782 421.274 134.778C421.596 134.778 421.904 134.846 422.194 134.981C422.484 135.122 422.729 135.317 422.928 135.571C423.128 135.824 423.264 136.105 423.332 136.423L424.12 139.341C424.193 139.668 424.329 139.958 424.528 140.221C424.732 140.484 424.977 140.692 425.271 140.846C425.566 141 425.879 141.086 426.209 141.104C426.54 141.118 426.858 141.068 427.166 140.941C434.784 137.692 440.196 130.25 448.598 128.523C448.884 128.414 449.169 128.401 449.46 128.478C449.75 128.555 449.994 128.713 450.185 128.945C450.375 129.18 450.475 129.448 450.493 129.747C450.511 130.05 450.438 130.327 450.275 130.581C447.737 136.373 444.003 131.265 408.321 159.256C407.206 160.117 407.102 161.794 408.498 161.921C415.332 162.759 431.838 155.036 385.896 177.462C384.627 178.073 383.634 180.281 385.035 180.258C386.961 180.258 392.168 178.885 407.206 175.635C408.575 175.354 409.898 176.396 408.956 177.439C405.86 180.815 394.353 182.519 385.184 184.423C385.053 184.446 384.926 184.482 384.804 184.536C384.681 184.591 384.572 184.659 384.468 184.745C384.364 184.831 384.273 184.926 384.196 185.035C384.115 185.144 384.051 185.257 384.006 185.384C383.956 185.506 383.929 185.638 383.915 185.769C383.902 185.9 383.902 186.036 383.924 186.168C383.947 186.299 383.983 186.426 384.038 186.548C384.092 186.671 384.16 186.784 384.246 186.884ZM393.542 222.874C420.766 201.083 452.818 186.122 481.919 167.609C482.544 167.178 483.011 166.611 483.319 165.918C483.632 165.225 483.741 164.504 483.646 163.752C480.754 146.656 473.643 131.011 475.674 113.998C475.823 112.624 475.547 112.525 475.243 113.998C474.658 116.789 474.631 119.862 471.912 121.235C471.237 121.53 470.656 121.961 470.176 122.523C469.696 123.085 469.36 123.719 469.17 124.435C468.155 131.292 465.667 138.403 465.082 145.161C464.497 151.279 468.662 159.256 467.062 165.275C466.741 166.013 466.283 166.657 465.689 167.205C465.1 167.749 464.42 168.157 463.659 168.424C454.291 171.823 443.495 178.2 434.05 176.043C432.677 175.735 432.704 174.973 434.05 174.593L461.982 166.34C462.317 166.231 462.621 166.072 462.902 165.859C463.178 165.646 463.414 165.392 463.604 165.098C463.799 164.803 463.935 164.49 464.017 164.146C464.103 163.806 464.126 163.462 464.094 163.113C462.77 153.364 461.551 144.703 460.486 136.396C460.31 135.027 459.29 134.646 458.302 135.634C446.645 147.368 415.128 188.307 408.779 200.168C408.094 201.414 408.552 201.718 409.617 200.802C414.154 196.791 419.094 193.351 424.428 190.478C429.767 187.609 435.36 185.388 441.211 183.811C442.58 183.458 442.734 183.811 441.515 184.55C423.939 195.268 403.295 203.544 392.93 222.212C392.168 223.458 392.549 223.685 393.641 222.874H393.542ZM324.005 15.6359C322.708 16.1933 322.101 18.1739 323.47 17.9971C324.236 17.8476 325.478 17.4397 327.689 16.8278C328.446 16.6647 329.198 16.6873 329.946 16.8868C330.694 17.0907 331.356 17.4533 331.927 17.9745L333.427 19.4474C333.681 19.6695 333.966 19.8463 334.284 19.9641C334.601 20.0865 334.927 20.1454 335.267 20.1454C335.607 20.1454 335.938 20.0865 336.255 19.9641C336.572 19.8463 336.858 19.6695 337.112 19.4474C343.787 13.959 354.048 11.0629 361.667 14.3669C361.961 14.5028 362.206 14.7023 362.406 14.9561C362.61 15.2099 362.741 15.4954 362.804 15.8126C362.868 16.1299 362.859 16.4471 362.777 16.7599C362.691 17.0726 362.542 17.349 362.329 17.5938C340.438 45.657 341.15 43.3954 354.964 34.6075C356.423 33.7555 357.932 32.9941 359.482 32.3233C368.066 28.616 385.565 18.7857 390.872 19.878C392.245 20.159 391.357 21.9854 390.061 22.416C367.812 30.5422 346.887 40.4495 332.892 60.9712C332.131 62.1359 332.462 62.4668 333.654 61.7054C365.655 41.0342 400.548 24.7546 438.161 18.0243C439.557 17.7932 439.534 17.5666 438.161 17.6164C437.186 17.7071 436.217 17.7071 435.242 17.6164C433.624 17.1406 432.065 16.5151 430.569 15.7401C421.07 12.2096 411.19 16.4743 400.653 16.8052C399.257 16.8052 398.926 15.9395 400.195 15.4093C410.583 10.9632 453.525 8.52491 466.224 11.0131C467.597 11.2669 468.966 10.3287 467.824 9.51745C460.205 3.9021 407.863 8.72886 386.381 8.49772C366.063 10.3559 342.899 7.58675 324.005 15.6359ZM411.752 42.9377C417.716 38.8995 442.833 34.8341 452.233 33.5425C453.629 33.3385 454.137 32.3732 452.791 32.0151L450.76 31.4849C449.387 31.1268 449.183 30.1388 450.302 29.2732L455.052 25.5931C456.144 24.7274 455.94 23.7893 454.545 23.5853C420.055 17.9745 390.772 39.738 361.517 55.4329C360.298 56.0946 360.425 56.5251 361.821 56.4254C484.511 47.5106 448.653 57.3364 439.688 47.9684C438.723 46.9758 439.457 45.7068 440.83 45.4258C465.793 42.0494 443.545 43.5223 413.044 44.7913C411.648 44.9182 410.583 43.7263 411.752 42.9377ZM140.719 160.321C142.65 161.209 144.707 159.179 146.838 158.086C155.018 153.337 164.617 150.468 171.955 144.653C199.207 121.793 233.923 111.89 262.267 91.3186C263.409 90.4801 263.206 90.0496 261.859 90.53C252.868 93.63 245.453 101.149 236.466 103.229C207.002 112.806 184.554 135.303 155.675 146.176C154.356 146.684 152.299 147.622 151.003 148.156C144.63 150.821 136.25 151.51 133.227 157.728C132.616 159.002 132.566 161.844 133.962 161.948C134.827 161.948 135.843 161.082 136.935 160.117C138.027 159.152 139.45 159.736 140.719 160.321ZM330.608 106.633C355.394 89.9997 379.342 73.6159 406.495 62.5166C407.786 61.9864 407.714 61.4788 406.313 61.4244C377.008 60.2324 356.917 81.0079 334.442 96.9838C331.623 98.987 328.881 100.895 328.5 105.568C328.374 106.859 329.439 107.421 330.608 106.633ZM49.5455 399.887C66.9173 421.501 99.1456 444.66 116.313 448.802C117.659 449.133 117.886 448.598 116.744 447.787L50.0305 399.379C49.0107 398.541 48.6572 398.772 49.5455 399.887ZM371.928 169.335C372.716 170.532 374.466 172.789 377.897 177.566C378.087 177.833 378.327 178.055 378.608 178.223C378.894 178.395 379.202 178.499 379.528 178.54C379.859 178.581 380.181 178.554 380.498 178.459C380.815 178.363 381.096 178.209 381.35 177.996C454.264 118.009 396.741 165.148 373.886 166.974C372.485 167.101 371.139 168.171 371.928 169.335ZM373.781 61.1479C366.009 62.5166 336.273 86.5417 330.812 89.7958C328.147 91.6494 325.731 93.0453 325.962 96.0683C326.112 97.4642 327.585 97.795 328.727 96.9838L373.605 63.6859C374.747 62.8747 375.177 60.8941 373.781 61.1479ZM620.254 132.434C620.078 132.865 620.993 133.631 622.262 134.238C631.431 138.734 656.824 154.556 664.37 154.86C665.766 154.86 666.297 152.702 665.485 151.56C659.952 143.942 633.561 137.868 622.847 132.842C621.573 132.258 620.431 131.977 620.254 132.412V132.434ZM188.515 665.766C187.691 666.967 186.952 668.223 186.304 669.528C185.651 670.833 185.098 672.175 184.631 673.562C184.169 674.944 183.806 676.354 183.539 677.786C183.272 679.218 183.104 680.664 183.041 682.123C182.973 683.578 183.009 685.033 183.145 686.487C183.281 687.938 183.516 689.374 183.856 690.793C184.192 692.212 184.622 693.598 185.152 694.958C185.683 696.318 186.304 697.632 187.015 698.906C187.65 700.152 188.488 699.998 188.769 698.629C199.665 645.014 194.076 675.923 187.931 681.511C186.888 682.449 185.9 681.103 186.204 679.735L189.404 666.17C189.834 664.747 189.376 664.547 188.692 665.712L188.515 665.766ZM171.755 400.091C156.999 425.489 155.675 423.685 164.971 424.116C165.75 424.134 166.484 423.971 167.182 423.622C167.88 423.277 168.456 422.788 168.909 422.158C173.151 415.482 175.866 408.575 173.786 400.317C173.455 398.921 172.462 398.921 171.755 400.091ZM395.903 134.012C393.365 134.9 386.127 139.446 361.744 153.64C360.525 154.352 359.609 156.183 360.629 157.171C365.959 162.252 387.269 142.441 395.572 136.522C396.714 135.684 397.222 133.554 395.903 134.012ZM663.201 320.927C662.616 320.624 661.751 321.462 661.193 322.758C656.267 334.211 647.175 343.534 643.822 355.775C643.468 357.121 644.456 359.328 645.294 358.313C646.872 356.129 650.579 348.152 663.074 323.823C663.731 322.477 663.786 321.235 663.201 320.927ZM438.668 207.836C441.361 206.34 449.21 200.399 474.047 182.442C475.189 181.627 475.039 180.484 473.716 180.92C466.759 183.204 447.434 197.757 438.646 205.502C437.576 206.49 437.576 208.448 438.668 207.836ZM480.881 183.761C510.313 166.824 510.544 168.524 505.033 164.563C504.743 164.359 504.43 164.209 504.095 164.11C503.759 164.01 503.415 163.965 503.061 163.978C502.712 163.992 502.373 164.064 502.042 164.191C501.715 164.314 501.416 164.49 501.144 164.713L480.573 183.331C479.535 184.269 479.685 184.446 480.881 183.761ZM419.928 809.917C425.516 809.178 427.066 806.486 426.151 799.502C426.101 799.162 425.987 798.84 425.815 798.545C425.638 798.246 425.416 797.988 425.144 797.775C424.872 797.562 424.573 797.408 424.243 797.313C423.912 797.217 423.572 797.186 423.227 797.217C417.136 797.902 416.32 799.425 417.136 807.605C417.163 807.954 417.258 808.285 417.422 808.593C417.589 808.901 417.807 809.169 418.083 809.386C418.355 809.604 418.663 809.762 418.999 809.853C419.339 809.944 419.683 809.966 420.028 809.917H419.928ZM413.021 142.999C404.269 145.945 396.229 150.223 388.892 155.825C387.727 156.636 387.854 156.84 389.145 156.31C397.58 152.779 406.39 149.96 413.578 144.014C414.72 143.126 414.467 142.596 413.121 142.999H413.021ZM368.828 704.979C362.075 709.321 355.444 713.612 348.791 717.855C347.622 718.616 347.699 718.743 349.022 718.285C356.641 715.743 370.686 713.585 371.266 706.121C371.37 704.72 370.024 704.213 368.828 704.979ZM599.479 523.366C606.744 512.294 613.955 500.99 617.258 487.811C617.612 486.438 617.258 486.338 616.724 487.607L599.098 523.162C598.591 524.558 598.695 524.635 599.479 523.366ZM668.989 155.367C666.732 159.355 666.831 158.544 676.761 163.598C677.06 163.743 677.378 163.829 677.709 163.851C678.039 163.874 678.361 163.833 678.678 163.729C678.996 163.625 679.281 163.462 679.531 163.249C679.784 163.031 679.988 162.777 680.138 162.478C681.715 159.002 680.573 158.136 672.519 154.225C672.211 154.076 671.88 153.989 671.536 153.967C671.191 153.944 670.856 153.985 670.525 154.094C670.199 154.198 669.9 154.361 669.637 154.583C669.369 154.805 669.156 155.064 668.989 155.367ZM465.639 88.7534L445.856 99.549C444.637 100.233 444.791 100.764 446.16 100.46C453.729 98.3434 460.5 94.7403 466.478 89.6417C467.493 88.6265 466.858 88.069 465.639 88.7534ZM380.362 39.1805C378.277 40.0915 373.401 42.7836 361.49 49.0561C360.244 49.7178 360.094 51.2179 361.49 51.0638C365.732 50.5834 374.466 44.7143 380.081 41.1112C381.25 40.3453 381.708 38.6185 380.362 39.1805ZM403.218 324.204C412.409 318.312 393.388 312.04 395.092 320.42C395.368 321.793 396.714 321.947 397.63 320.905C401.922 316.155 401.894 316.536 401.183 322.858C401.033 324.254 402.021 324.965 403.168 324.204H403.218ZM394.657 239.076C399.914 243.418 403.24 238.061 403.825 234.861C404.079 233.488 402.606 233.819 401.971 235.065C401.332 236.525 400.594 237.939 399.764 239.303C398.899 240.422 397.707 237.83 398.01 236.484C399.456 229.958 399.814 230.492 394.684 235.546C394.43 235.768 394.23 236.031 394.09 236.334C393.949 236.638 393.872 236.96 393.863 237.295C393.859 237.631 393.918 237.952 394.049 238.265C394.176 238.573 394.362 238.845 394.607 239.076H394.657ZM491.341 168.37C492.402 166.915 493.63 165.619 495.026 164.486C496.091 163.598 498.049 161.948 497.564 160.547C497.519 160.407 497.46 160.271 497.387 160.144C496.676 158.925 494.033 159.482 493.018 160.448C492.062 161.495 491.31 162.669 490.766 163.978C490.217 165.288 489.914 166.652 489.846 168.066C489.741 169.39 490.48 169.517 491.291 168.37H491.341Z" fill="#686868"/>
</g>
<path d="M271.536 466.224C298.049 416.42 329.035 370.097 351.764 318.467C352.807 315.924 356.718 312.271 357.425 312.652C367.079 317.728 302.291 412.459 275.094 471.559C274.273 473.045 273.571 474.586 272.986 476.177C270.824 484.231 283.297 492.357 276.032 498.122C275.438 498.557 275.008 499.114 274.731 499.799C274.459 500.478 274.382 501.181 274.509 501.906C307.775 628.431 253.579 456.648 259.829 371.923C259.829 370.505 260.287 368.271 260.437 366.847C261.733 354.656 261.125 312.167 266.659 307.467C267.729 306.556 268.794 308.686 268.59 310.009C264.688 335.875 262.852 361.885 263.083 388.044C263.315 414.2 265.608 440.178 269.963 465.97C270.167 467.493 270.874 467.493 271.536 466.224Z" fill="#686868"/>
<path d="M296.399 472.777C321.059 436.203 341.15 392.064 368.425 359.482C369.34 358.413 369.975 358.694 369.49 360.013C363.294 377.158 309.225 459.063 296.78 473.081C295.842 474.124 295.611 473.942 296.399 472.777Z" fill="#686868"/>
<path d="M204.084 308.994C197.657 273.843 188.058 185.031 186.943 168.905C186.943 167.509 187.297 167.459 187.628 168.905C192.196 187.469 206.345 292.411 205.403 309.298C205.176 310.594 204.338 310.363 204.084 308.994Z" fill="#686868"/>
<path d="M460.437 279.255C509.883 285.5 561.591 279.762 610.579 288.042C611.975 288.296 612.179 289.184 611.213 290.2C603.418 298.453 607.479 311.102 606.921 321.843C606.921 323.266 606.717 325.528 606.541 326.924C605.779 332.689 602.226 323.597 599.887 355.594C599.534 375.762 596.053 396.23 598.061 416.04C598.106 416.819 597.988 417.572 597.698 418.297C597.408 419.022 596.978 419.647 596.407 420.178C576.701 436.054 547.799 442.349 523.62 450.657C522.936 450.811 522.256 450.779 521.59 450.561C520.919 450.339 520.352 449.968 519.89 449.437C513.133 443.314 482.454 431.177 464.906 421.093C463.687 420.409 463.786 419.394 464.906 418.555C470.698 414.821 459.825 411.163 463.814 360.929C466.125 338.073 460.664 315.217 462.771 292.738C462.898 291.342 463.46 289.135 463.51 287.662C463.51 284.589 461.529 283.116 459.445 280.75C458.633 279.889 459.114 279.1 460.437 279.255ZM579.801 419.366C579.978 419.951 579.089 420.867 577.793 421.374C565.688 426.047 553.328 429.899 540.715 432.927C539.369 433.258 538.934 432.623 540.004 431.708C546.784 425.893 559.102 427.266 565.398 421.247C566.49 419.956 567.147 418.474 567.378 416.801C570.759 391.557 573.678 366.771 577.054 341.427C577.136 341.137 577.131 340.847 577.05 340.561C576.964 340.271 576.81 340.031 576.588 339.831C576.361 339.632 576.103 339.505 575.808 339.455C575.513 339.401 575.228 339.433 574.947 339.546C562.248 343.353 551.23 353.564 537.896 346.757C528.22 342.569 489.642 316.586 478.593 319.962C477.247 320.37 476.386 322.505 476.259 323.874C474.632 344.572 475.547 411.671 471.94 396.23C471.609 394.861 471.206 394.834 470.952 396.23C469.021 407.809 473.49 409.183 482.554 414.413C483.773 415.124 484.816 417.486 483.447 417.794C482.681 417.971 480.904 416.978 475.52 414.467C474.251 413.883 472.524 414.467 472.728 415.863C474.097 425.005 509.144 434.857 520.321 440.6C521.785 441.434 523.344 442.014 524.993 442.349C531.647 442.884 537.969 438.161 544.346 435.9C545.665 435.442 547.849 434.808 549.195 434.35C558.11 431.381 567.229 428.943 575.89 425.385C577.181 424.878 579.343 424.166 580.612 423.581C600.114 414.794 591.149 363.34 592.804 342.007C592.804 340.611 592.396 340.131 592.192 341.526C591.988 342.922 591.507 346.376 590.696 351.991C590.492 353.36 588.457 355.114 588.154 353.741C588.113 348.914 588.339 344.096 588.838 339.292C588.861 339.134 588.865 338.975 588.847 338.816C588.833 338.658 588.797 338.504 588.743 338.349C588.688 338.2 588.62 338.059 588.53 337.923C588.444 337.792 588.339 337.67 588.222 337.561C588.108 337.452 587.977 337.361 587.836 337.284C587.7 337.207 587.551 337.148 587.397 337.103C587.243 337.062 587.084 337.04 586.925 337.035C586.767 337.031 586.608 337.049 586.454 337.08C579.774 338.757 580.381 346.607 579.697 352.725C570.351 424.574 568.547 422.158 576.955 419.063C578.505 418.578 579.801 418.782 579.95 419.366H579.801ZM472.298 288.627C473.095 291.265 473.494 293.966 473.49 296.726C472.37 309.425 498.453 316.128 509.652 323.874C510.799 324.662 512.625 326.058 513.794 326.797C548.18 348.588 561.16 333.604 596.484 324.078C597.204 323.851 597.812 323.452 598.306 322.881C598.8 322.31 599.108 321.648 599.226 320.905C600.168 312.398 601.107 303.864 602.022 295.507C602.076 295.181 602.058 294.859 601.963 294.542C601.872 294.224 601.718 293.943 601.496 293.699C601.279 293.449 601.016 293.263 600.712 293.137C600.409 293.01 600.091 292.951 599.76 292.969C557.194 293.476 515.952 287.585 474.328 286.134C474.174 286.13 474.025 286.143 473.875 286.175C473.725 286.207 473.58 286.252 473.44 286.32C473.304 286.384 473.177 286.465 473.055 286.565C472.937 286.66 472.833 286.769 472.742 286.891C472.647 287.014 472.574 287.145 472.511 287.286C472.452 287.426 472.407 287.571 472.384 287.721C472.357 287.875 472.348 288.024 472.361 288.178C472.37 288.332 472.402 288.477 472.447 288.627H472.298Z" fill="#686868"/>
<path d="M441.818 518.92C420.105 474.02 442.276 361.993 440.803 305.591C440.015 295.429 448.118 294.061 449.768 302.06C449.976 303.769 449.886 305.464 449.491 307.141C434.481 374.312 447.33 511.659 447.357 511.913C448.272 516.354 451.395 521.004 451.241 525.754C451.191 526.584 450.96 527.359 450.557 528.084C450.153 528.809 449.609 529.412 448.929 529.892C445.453 531.669 442.403 526.769 442.177 523.62C442.335 522.033 442.217 520.465 441.818 518.92ZM438.061 426.223C435.859 450.874 436.661 475.42 440.472 499.876C440.704 501.271 440.88 501.244 440.83 499.876C439.992 475.085 439.176 450.353 438.288 426.223C438.315 424.827 438.188 424.827 438.061 426.223Z" fill="#686868"/>
<path d="M616.166 143.026C612.636 162.379 611.493 182.619 607.99 201.591C607.736 202.964 607.097 203.014 606.771 201.591C604.559 192.119 608.57 180.843 609.309 170.709C609.309 169.313 609.613 167.051 609.817 165.628C611.063 157.198 611.774 144.273 614.462 140.969C615.355 140.003 616.42 141.653 616.166 143.026Z" fill="#686868"/>
<path d="M129.978 173.655C129.824 176.193 120.887 192.93 96.4812 308.509C96.2002 309.883 95.1351 310.213 94.9538 308.813C93.3812 296.599 103.819 235.165 126.928 175.128C127.413 173.809 130.078 172.259 129.978 173.655Z" fill="#686868"/>
<path d="M390.166 802.729C378.024 420.381 402.86 524.635 388.258 393.46C388.108 392.064 389.731 390.238 389.962 391.606C390.111 392.522 390.166 394.276 390.365 397.68C390.365 399.076 390.927 399.125 391.639 397.933C396.334 389.753 406.876 388.457 411.648 396.914C412.333 398.133 412.972 399.153 413.325 399.076C413.679 398.998 413.883 397.779 413.806 396.383C411.725 354.275 407.356 348.129 409.006 347.341C410.252 346.706 411.548 348.333 411.725 349.729C417.794 425.054 421.197 501.829 413.987 576.977C410.125 608.267 419.702 640.826 415.609 671.074C415.405 672.469 415.179 672.442 415.129 671.074C413.402 633.207 407.334 595.518 413.706 557.144C413.932 555.748 413.248 555.34 412.056 556.102C389.2 571.189 388.616 523.719 412.056 540.126C413.198 540.914 414.086 540.506 414.086 539.11C414.086 494.818 414.086 452.99 414.086 408.117C414.086 406.717 413.275 406.363 412.233 407.301C383.485 433.003 400.803 360.674 394.023 508.482C392.323 527.2 386.254 545.51 388.412 564.559C389.758 604.075 390.569 643.541 388.412 682.957C388.412 715.289 395.545 790.587 391.766 803.413C391.281 804.759 390.188 804.152 390.166 802.729ZM403.676 408.09C407.687 407.279 408.399 402.352 406.214 399.153C405.693 398.504 405.054 398.01 404.297 397.661C403.545 397.312 402.752 397.149 401.922 397.167C393.923 397.906 398.238 413.932 399.384 401.536C399.384 401.228 399.457 400.934 399.597 400.657C399.738 400.381 399.933 400.154 400.186 399.973C400.436 399.787 400.712 399.669 401.02 399.619C401.324 399.57 401.628 399.592 401.922 399.683C404.206 400.675 404.261 402.479 402.276 405.933C401.795 407.174 402.276 408.394 403.676 408.117V408.09ZM407.102 552.29C411.064 550.21 410.683 546.017 407.991 543.226C407.003 542.21 405.861 542.795 405.707 544.191L404.995 550.64C404.741 552.036 405.756 552.952 407.102 552.29Z" fill="#686868"/>
<path d="M322.355 138.988C324.087 141.463 325.337 144.164 326.108 147.082C326.874 150.006 327.114 152.97 326.824 155.979C326.62 157.375 325.859 157.325 325.478 155.979C324.055 150.744 322.609 145.487 321.086 139.826C320.755 138.48 321.44 137.923 322.355 138.988Z" fill="#686868"/>
<path d="M358.848 142.033C458.529 74.1008 369.467 128.65 353.007 135.253C351.688 135.761 351.334 134.95 352.426 134.084C362.583 126.085 405.756 102.468 417.06 101.806C418.456 101.806 418.582 103.129 417.517 104.04C399.357 119.282 378.813 130.884 360.018 144.676C359.814 144.83 359.284 144.526 358.368 144.091C357.453 143.66 357.756 142.822 358.848 142.033Z" fill="#686868"/>
<path d="M457.237 76.7929C436.009 86.6413 414.154 94.7947 391.661 101.249C390.034 101.715 388.484 102.368 387.016 103.202C374.62 110.671 363.498 120.651 350.545 126.846C349.276 127.458 348.261 126.846 349.199 125.704C353.365 121.081 369.517 111.178 388.87 98.987C390.324 98.144 391.874 97.5367 393.515 97.1605C415.863 92.3609 448.4 75.5466 457.31 74.9891C458.71 74.8849 458.529 76.2309 457.237 76.7929Z" fill="#686868"/>
<path d="M462.137 108.967L436.032 124.435C434.812 125.147 434.178 124.639 435.066 123.547C439.635 117.936 455.384 108.994 461.833 107.621C463.202 107.345 463.329 108.26 462.137 108.967Z" fill="#686868"/>
<path d="M471.763 154.556C470.086 144.88 469.225 140.892 469.225 139.319C469.225 137.742 471.305 139.088 471.763 140.411C473.195 144.871 474.042 149.444 474.301 154.125C474.428 155.521 473.997 156.663 473.335 156.895C472.678 157.121 471.989 155.952 471.763 154.556Z" fill="#686868"/>
<path d="M382.492 16.4744C378.735 18.2782 374.366 18.174 370.174 18.6589C365.986 19.1393 366.394 16.3475 366.317 13.7551C366.317 12.3365 366.521 12.2096 367.636 13.0707C372.716 17.0319 379.243 13.4016 382.669 13.7823C384.069 13.9364 383.761 15.8671 382.492 16.4744Z" fill="#686868"/>
<path d="M544.726 415.631C544.092 407.886 558.848 415.631 559.56 407.736C559.687 406.336 559.329 404.052 559.406 402.656C559.583 399.098 560.344 394.298 561.944 392.495C562.909 391.457 564.233 393.029 564.255 394.425C564.432 412.713 567.378 414.489 547.722 417.716C547.387 417.78 547.047 417.78 546.711 417.707C546.376 417.639 546.068 417.503 545.782 417.308C545.501 417.113 545.27 416.869 545.084 416.578C544.903 416.288 544.781 415.971 544.726 415.631Z" fill="#686868"/>
<path d="M529.765 434.2C520.828 434.73 499.014 425.87 492.665 418.958C491.722 417.943 492.284 417.336 493.553 417.893C506.021 423.304 516.817 430.923 529.715 433.13C531.111 433.538 531.166 434.123 529.765 434.2Z" fill="#686868"/>
<path d="M536.803 323.62C536.522 310.925 555.775 312.09 555.594 323.62C555.594 324.241 555.535 324.848 555.417 325.455C555.294 326.058 555.118 326.647 554.878 327.218C554.642 327.789 554.356 328.329 554.012 328.841C553.667 329.353 553.278 329.829 552.843 330.264C552.407 330.703 551.932 331.093 551.419 331.433C550.907 331.778 550.363 332.068 549.792 332.303C549.226 332.539 548.637 332.716 548.029 332.838C547.427 332.956 546.815 333.019 546.198 333.019C545.582 333.019 544.97 332.956 544.367 332.838C543.76 332.716 543.171 332.539 542.604 332.303C542.033 332.068 541.489 331.778 540.977 331.433C540.465 331.093 539.989 330.703 539.554 330.264C539.119 329.829 538.729 329.353 538.385 328.841C538.04 328.329 537.755 327.789 537.515 327.218C537.279 326.647 537.102 326.058 536.985 325.455C536.862 324.848 536.803 324.241 536.803 323.62ZM549.094 322.582C546.248 320.039 546.552 319.835 544.218 322.582C543.996 322.84 543.837 323.13 543.733 323.457C543.633 323.783 543.597 324.114 543.629 324.454C543.656 324.794 543.756 325.111 543.914 325.41C544.073 325.714 544.286 325.972 544.549 326.185C544.875 326.466 545.242 326.674 545.645 326.81C546.053 326.942 546.475 326.996 546.901 326.964C547.331 326.933 547.735 326.824 548.12 326.629C548.505 326.439 548.836 326.18 549.117 325.854C549.362 325.65 549.548 325.405 549.679 325.12C549.811 324.83 549.874 324.531 549.874 324.213C549.869 323.896 549.801 323.597 549.666 323.311C549.53 323.026 549.339 322.781 549.094 322.582Z" fill="#686868"/>
<rect y="382" width="798" height="124" fill="url(#paint0_linear_43_1745)"/>
</g>
<defs>
<linearGradient id="paint0_linear_43_1745" x1="399" y1="382" x2="399" y2="506" gradientUnits="userSpaceOnUse">
<stop stop-color="#ECECEC" stop-opacity="0"/>
<stop offset="1" stop-color="#ECECEC"/>
</linearGradient>
<clipPath id="clip0_43_1745">
<rect width="798" height="506" fill="white"/>
</clipPath>
</defs>
</svg>
