<svg width="21" height="10" viewBox="0 0 21 10" fill="none" xmlns="http://www.w3.org/2000/svg">
<path d="M0.00164323 3.15028C0.207003 3.14699 0.326112 3.25049 0.448507 3.32607C1.08923 3.72118 1.79649 3.90518 2.52921 4.03497C3.16911 4.14833 3.56669 4.55165 3.7203 5.18827C3.73919 5.26713 3.77534 5.36406 3.68826 5.40924C3.64391 5.43224 3.55848 5.39691 3.50015 5.36899C3.3219 5.2852 3.12886 5.18334 2.99579 5.40677C2.8775 5.60392 3.05329 5.73206 3.17076 5.86185C3.7318 6.48039 4.45302 6.795 5.2605 6.89029C6.45898 7.03158 7.46031 6.04749 7.53014 4.71923C7.55642 4.22472 7.47674 3.75157 7.21635 3.33921C6.50087 2.21055 6.89599 1.16404 7.40528 0.116702C7.43403 0.0567364 7.47756 -0.0229433 7.55396 0.0107358C7.60653 0.0337361 7.6591 0.106844 7.6706 0.165166C7.80943 0.850247 8.29818 1.21989 8.86087 1.5419C9.38988 1.84419 9.61084 2.27955 9.46463 2.67466C9.41452 2.81102 9.36605 2.99338 9.17137 2.76338C8.92741 2.47588 8.66537 2.50791 8.45261 2.82417C8.15525 3.26528 8.1914 4.03333 8.60622 4.46705C9.02926 4.9098 9.20012 5.5152 9.6322 5.94317C9.67984 5.98999 9.71845 6.06228 9.6437 6.11978C9.58456 6.16578 9.50899 6.15675 9.45148 6.1165C9.28473 5.99821 9.12127 5.87499 8.95862 5.74931C8.86169 5.67456 8.76723 5.56202 8.63908 5.67128C8.5249 5.76903 8.57336 5.9021 8.62265 6.01464C8.83294 6.49436 9.24366 6.72683 9.71599 6.8714C10.4504 7.09647 11.1174 6.95108 11.7261 6.49271C11.8378 6.40893 11.9298 6.312 12.0004 6.19207C12.0932 6.03517 12.2033 5.85117 12.0497 5.70495C11.8698 5.53327 11.7285 5.72878 11.602 5.83885C11.4361 5.9826 11.2858 6.14525 11.0295 6.04832C11.4418 5.46509 11.7679 4.83751 12.214 4.28222C12.5327 3.88547 12.55 3.39014 12.3438 2.91863C12.177 2.53748 11.8944 2.46273 11.5675 2.71738C11.3827 2.86195 11.326 2.7642 11.2751 2.62209C11.1634 2.30912 11.3244 2.06351 11.5026 1.83351C11.6817 1.60186 11.938 1.45729 12.1852 1.31436C12.6198 1.063 12.941 0.736067 13.0568 0.230882C13.0765 0.14463 13.0872 0.0173072 13.1989 0.00169987C13.3402 -0.0171932 13.3574 0.125737 13.4084 0.215274C13.9891 1.24372 14.0285 2.25737 13.4757 3.33757C12.8933 4.47526 13.1365 5.61624 14.0146 6.45247C14.3612 6.78268 14.7761 6.94122 15.2492 6.89522C16.0591 6.81636 16.7837 6.51572 17.4121 5.99492C17.4843 5.93496 17.5484 5.85939 17.6002 5.77971C17.6675 5.67538 17.7242 5.55627 17.6256 5.43963C17.5435 5.34188 17.4334 5.36488 17.3217 5.38706C16.9759 5.45688 16.8896 5.35995 17.0104 5.02316C17.1311 4.68637 17.3496 4.42844 17.6905 4.29783C17.9197 4.20994 18.1522 4.12943 18.4002 4.10397C19.1198 4.02922 19.7918 3.82304 20.3709 3.36878C20.4333 3.31949 20.5015 3.23242 20.5828 3.28417C20.6896 3.35071 20.6206 3.45832 20.5927 3.54375C20.3405 4.32083 19.7605 4.85066 19.1814 5.37309C17.8786 6.54775 17.0243 7.97541 16.7303 9.71276C16.6785 10.0208 16.3805 9.99449 16.1676 9.99449C14.8315 9.99202 14.0146 9.99449 12.6401 9.99449C11.1703 9.99449 10.5254 9.9871 9.40658 9.99449C7.53014 10.0069 6.31831 9.99449 4.40933 9.99449C3.9904 9.99449 3.8928 9.90497 3.84516 9.67251C3.72359 9.08271 3.59708 8.49374 3.35887 7.93681C2.99333 7.08497 2.49389 6.32186 1.82606 5.67538C1.28391 5.15048 0.786119 4.58944 0.365542 3.96104C0.205361 3.722 0.0698224 3.47146 0 3.14863L0.00164323 3.15028Z" fill="#F0CB6E"/>
</svg>
