<svg width="48" height="48" viewBox="0 0 48 48" fill="none" xmlns="http://www.w3.org/2000/svg">
<rect x="0.5" y="0.5" width="47" height="47" rx="7.5" stroke="#BABABA"/>
<g clip-path="url(#clip0_43_2139)">
<path d="M19.834 24C19.834 21.6989 21.6989 19.833 24 19.833C26.3011 19.833 28.167 21.6989 28.167 24C28.167 26.3011 26.3011 28.167 24 28.167C21.6989 28.167 19.834 26.3011 19.834 24ZM17.5814 24C17.5814 27.545 20.455 30.4186 24 30.4186C27.545 30.4186 30.4186 27.545 30.4186 24C30.4186 20.455 27.545 17.5814 24 17.5814C20.455 17.5814 17.5814 20.455 17.5814 24ZM29.1727 17.3269C29.1727 18.1549 29.8441 18.8273 30.6731 18.8273C31.501 18.8273 32.1735 18.1549 32.1735 17.3269C32.1735 16.499 31.502 15.8275 30.6731 15.8275C29.8441 15.8275 29.1727 16.499 29.1727 17.3269ZM18.9495 34.1747C17.7308 34.1191 17.0685 33.9162 16.6282 33.7445C16.0446 33.5174 15.6286 33.2468 15.1904 32.8096C14.7532 32.3724 14.4816 31.9564 14.2555 31.3728C14.0838 30.9326 13.8809 30.2702 13.8253 29.0515C13.7647 27.7338 13.7526 27.338 13.7526 24C13.7526 20.662 13.7658 20.2672 13.8253 18.9485C13.8809 17.7298 14.0848 17.0685 14.2555 16.6272C14.4826 16.0436 14.7532 15.6276 15.1904 15.1894C15.6276 14.7522 16.0436 14.4806 16.6282 14.2544C17.0685 14.0828 17.7308 13.8798 18.9495 13.8243C20.2672 13.7637 20.663 13.7516 24 13.7516C27.338 13.7516 27.7328 13.7647 29.0515 13.8243C30.2702 13.8798 30.9315 14.0838 31.3728 14.2544C31.9564 14.4806 32.3724 14.7522 32.8106 15.1894C33.2478 15.6266 33.5184 16.0436 33.7456 16.6272C33.9172 17.0674 34.1202 17.7298 34.1757 18.9485C34.2363 20.2672 34.2484 20.662 34.2484 24C34.2484 27.337 34.2363 27.7328 34.1757 29.0515C34.1202 30.2702 33.9162 30.9326 33.7456 31.3728C33.5184 31.9564 33.2478 32.3724 32.8106 32.8096C32.3734 33.2468 31.9564 33.5174 31.3728 33.7445C30.9326 33.9162 30.2702 34.1191 29.0515 34.1747C27.7338 34.2353 27.338 34.2474 24 34.2474C20.663 34.2474 20.2672 34.2353 18.9495 34.1747ZM18.8465 11.5757C17.5158 11.6363 16.607 11.8473 15.8124 12.1563C14.9905 12.4754 14.2938 12.9035 13.5981 13.5981C12.9035 14.2928 12.4754 14.9895 12.1563 15.8124C11.8473 16.607 11.6363 17.5158 11.5757 18.8465C11.5141 20.1793 11.5 20.6054 11.5 24C11.5 27.3946 11.5141 27.8207 11.5757 29.1535C11.6363 30.4842 11.8473 31.393 12.1563 32.1876C12.4754 33.0095 12.9025 33.7072 13.5981 34.4019C14.2928 35.0965 14.9895 35.5236 15.8124 35.8437C16.608 36.1527 17.5158 36.3637 18.8465 36.4243C20.1803 36.4849 20.6054 36.5 24 36.5C27.3956 36.5 27.8207 36.4859 29.1535 36.4243C30.4842 36.3637 31.393 36.1527 32.1876 35.8437C33.0095 35.5236 33.7062 35.0965 34.4019 34.4019C35.0965 33.7072 35.5236 33.0095 35.8437 32.1876C36.1527 31.393 36.3647 30.4842 36.4243 29.1535C36.4849 27.8197 36.499 27.3946 36.499 24C36.499 20.6054 36.4849 20.1793 36.4243 18.8465C36.3637 17.5158 36.1527 16.607 35.8437 15.8124C35.5236 14.9905 35.0965 14.2938 34.4019 13.5981C33.7072 12.9035 33.0095 12.4754 32.1886 12.1563C31.393 11.8473 30.4842 11.6353 29.1545 11.5757C27.8217 11.5151 27.3956 11.5 24.001 11.5C20.6054 11.5 20.1803 11.5141 18.8465 11.5757Z" fill="#686868"/>
</g>
<defs>
<clipPath id="clip0_43_2139">
<rect width="25" height="25" fill="white" transform="translate(11.5 11.5)"/>
</clipPath>
</defs>
</svg>
