<svg width="48" height="48" viewBox="0 0 48 48" fill="none" xmlns="http://www.w3.org/2000/svg">
<path d="M27.664 33.136C28.0771 33.3257 28.5424 33.369 28.9834 33.2589C29.4244 33.1487 29.8147 32.8916 30.09 32.53L30.8 31.6C31.1726 31.1032 31.6557 30.7 32.2111 30.4223C32.7666 30.1446 33.379 30 34 30H40C41.0609 30 42.0783 30.4214 42.8284 31.1716C43.5786 31.9217 44 32.9391 44 34V40C44 41.0609 43.5786 42.0783 42.8284 42.8284C42.0783 43.5786 41.0609 44 40 44C30.4522 44 21.2955 40.2072 14.5442 33.4558C7.79285 26.7045 4 17.5478 4 8C4 6.93913 4.42143 5.92172 5.17157 5.17157C5.92172 4.42143 6.93913 4 8 4H14C15.0609 4 16.0783 4.42143 16.8284 5.17157C17.5786 5.92172 18 6.93913 18 8V14C18 14.621 17.8554 15.2334 17.5777 15.7889C17.3 16.3443 16.8968 16.8274 16.4 17.2L15.464 17.902C15.0968 18.1824 14.838 18.5812 14.7316 19.0307C14.6251 19.4802 14.6776 19.9528 14.88 20.368C17.6134 25.9197 22.1088 30.4096 27.664 33.136Z" stroke="#333333" stroke-width="1.5" stroke-linecap="round" stroke-linejoin="round"/>
</svg>
