<svg width="36" height="36" viewBox="0 0 36 36" fill="none" xmlns="http://www.w3.org/2000/svg">
<path d="M31.967 3.76671L24.667 1.33337C24.667 3.10148 23.9646 4.79718 22.7144 6.04742C21.4641 7.29766 19.7684 8.00004 18.0003 8.00004C16.2322 8.00004 14.5365 7.29766 13.2863 6.04742C12.036 4.79718 11.3336 3.10148 11.3336 1.33337L4.03364 3.76671C3.27928 4.01803 2.63961 4.53073 2.23007 5.21228C1.82053 5.89382 1.66811 6.69932 1.80031 7.48337L2.76698 13.2667C2.83044 13.6582 3.03144 14.0143 3.33388 14.2709C3.63631 14.5275 4.02035 14.6679 4.41698 14.6667H8.00031V31.3334C8.00031 33.1667 9.50031 34.6667 11.3336 34.6667H24.667C25.551 34.6667 26.3989 34.3155 27.024 33.6904C27.6491 33.0653 28.0003 32.2174 28.0003 31.3334V14.6667H31.5836C31.9803 14.6679 32.3643 14.5275 32.6667 14.2709C32.9692 14.0143 33.1702 13.6582 33.2336 13.2667L34.2003 7.48337C34.3325 6.69932 34.1801 5.89382 33.7706 5.21228C33.361 4.53073 32.7213 4.01803 31.967 3.76671Z" stroke="#686868" stroke-width="2" stroke-linecap="round" stroke-linejoin="round"/>
</svg>
