<svg width="40" height="40" viewBox="0 0 40 40" fill="none" xmlns="http://www.w3.org/2000/svg">
<path d="M3.33594 35.0001C3.3357 32.8437 3.85846 30.7195 4.8594 28.8095C5.86034 26.8996 7.30958 25.2609 9.08286 24.0339C10.8561 22.807 12.9005 22.0285 15.0407 21.7651C17.1809 21.5017 19.3531 21.7614 21.3709 22.5218" stroke="#686868" stroke-width="2" stroke-linecap="round" stroke-linejoin="round"/>
<path d="M35.6335 27.7101C36.2975 27.0462 36.6705 26.1457 36.6705 25.2068C36.6705 24.2678 36.2975 23.3673 35.6335 22.7034C34.9696 22.0395 34.0691 21.6665 33.1302 21.6665C32.1913 21.6665 31.2908 22.0395 30.6269 22.7034L23.9435 29.3901C23.5473 29.7861 23.2572 30.2756 23.1002 30.8134L21.7052 35.5968C21.6634 35.7402 21.6609 35.8922 21.6979 36.0369C21.735 36.1816 21.8103 36.3137 21.916 36.4193C22.0216 36.525 22.1537 36.6003 22.2984 36.6373C22.4431 36.6744 22.5951 36.6719 22.7385 36.6301L27.5219 35.2351C28.0597 35.0781 28.5492 34.788 28.9452 34.3918L35.6335 27.7101Z" stroke="#686868" stroke-width="2" stroke-linecap="round" stroke-linejoin="round"/>
<path d="M16.6693 21.6667C21.2716 21.6667 25.0026 17.9357 25.0026 13.3333C25.0026 8.73096 21.2716 5 16.6693 5C12.0669 5 8.33594 8.73096 8.33594 13.3333C8.33594 17.9357 12.0669 21.6667 16.6693 21.6667Z" stroke="#686868" stroke-width="2" stroke-linecap="round" stroke-linejoin="round"/>
</svg>
