<svg width="48" height="48" viewBox="0 0 48 48" fill="none" xmlns="http://www.w3.org/2000/svg">
<path d="M10.7734 0.5H37.2266C42.9003 0.500204 47.4998 5.09967 47.5 10.7734V37.2266C47.4998 42.9003 42.9003 47.4998 37.2266 47.5H10.7734C5.09967 47.4998 0.500204 42.9003 0.5 37.2266V10.7734C0.500203 5.09967 5.09967 0.500203 10.7734 0.5Z" stroke="#BABABA"/>
<path fill-rule="evenodd" clip-rule="evenodd" d="M13.3025 32.8703C12.8227 32.7249 12.3849 32.4662 12.0261 32.1161C11.6673 31.7659 11.398 31.3346 11.2408 30.8586C10.343 28.3979 10.077 18.1228 11.8061 16.0944C12.3816 15.4346 13.1941 15.0283 14.0673 14.9639C18.706 14.4651 33.0379 14.5316 34.6839 15.1301C35.1468 15.2803 35.5698 15.5333 35.9211 15.8702C36.2724 16.2071 36.5428 16.6191 36.7123 17.0754C37.6932 19.6192 37.7265 28.8634 36.5793 31.3075C36.2749 31.9437 35.7655 32.459 35.1328 32.7706C33.4036 33.6351 15.5969 33.6185 13.3025 32.8703ZM20.6679 28.0487L28.9811 23.7259L20.6679 19.3698V28.0487Z" fill="#686868"/>
</svg>
