<svg width="133" height="133" viewBox="0 0 133 133" fill="none" xmlns="http://www.w3.org/2000/svg">
<path d="M77.0032 131.664C72.2767 131.643 68.5271 127.909 68.6001 123.301C68.6732 118.698 72.5201 114.908 77.0884 114.938C81.7236 114.965 85.5371 118.786 85.4945 123.352C85.4488 127.993 81.678 131.688 77.0062 131.667L77.0032 131.664ZM73.1654 123.225C73.1532 125.843 74.6293 127.438 77.0914 127.475C79.4167 127.508 80.9293 125.87 80.9323 123.322C80.9384 120.68 79.4562 119.088 77.0001 119.1C74.5471 119.112 73.1745 120.586 73.1623 123.228L73.1654 123.225Z" fill="url(#paint0_linear_43_2109)"/>
<path d="M87.8897 123.283C87.8897 121.196 87.9201 119.106 87.8775 117.019C87.8562 115.963 88.2245 115.46 89.3506 115.484C91.5541 115.535 93.7636 115.469 95.9671 115.541C97.291 115.583 98.5145 115.99 99.5036 116.955C101.244 118.656 101.339 120.677 99.7045 122.502C99.3484 122.9 98.8554 123.087 99.5645 123.75C101.792 125.837 101.12 129.324 98.2954 130.458C95.2275 131.688 91.9893 131.38 88.7906 131.287C87.8836 131.26 87.8897 130.509 87.8897 129.845C87.8897 127.659 87.8897 125.469 87.8897 123.283ZM94.0832 118.771C93.4258 119.024 92.2814 118.391 91.9436 119.646C91.7823 120.246 91.6241 121.075 92.2236 121.437C93.2919 122.085 94.5245 121.865 95.6871 121.588C96.3445 121.431 96.6032 120.906 96.6154 120.237C96.6275 119.483 96.308 119 95.5471 118.88C95.1088 118.81 94.6584 118.81 94.0832 118.771ZM94.2384 125.056C93.4501 125.225 92.4397 124.73 92.0775 125.91C91.691 127.17 92.3332 127.782 94.0619 127.773C95.1849 127.767 96.4967 127.773 96.5058 126.284C96.5149 124.788 95.118 125.252 94.2384 125.056Z" fill="url(#paint1_linear_43_2109)"/>
<path d="M53.8639 126.353C53.8639 128.949 53.1699 129.93 50.6469 130.907C46.5534 132.493 42.186 131.323 39.8943 127.722C36.8112 122.878 39.3678 116.684 44.9191 115.266C47.9656 114.488 50.5799 115.297 52.7165 117.549C53.8273 118.723 53.6569 119.19 52.2843 120.059C51.0669 120.828 50.1021 121.322 48.7873 120.025C47.6947 118.949 46.1395 119.193 44.846 119.938C43.4247 120.755 43.0534 122.203 43.1295 123.684C43.2512 126.045 44.6269 127.387 46.7725 127.466C48.9821 127.544 49.4904 127.125 49.5908 124.929C49.6334 123.997 49.9743 123.533 50.9391 123.578C51.2891 123.596 51.6452 123.608 51.9921 123.572C53.4347 123.412 54.0465 124.037 53.8699 125.46C53.8334 125.756 53.8639 126.057 53.8639 126.356V126.353Z" fill="url(#paint2_linear_43_2109)"/>
<path d="M115.966 131.085C114.809 131.281 113.689 131.046 113.531 129.345C113.522 129.248 113.497 129.131 113.437 129.065C112.149 127.71 110.509 128.612 109.039 128.407C108.241 128.295 107.721 128.712 107.52 129.529C107.371 130.141 107.304 130.922 106.485 131.007C105.295 131.13 104.051 131.314 102.912 130.91C102.352 130.711 102.711 130.021 102.848 129.565C104.008 125.75 105.161 121.935 106.357 118.132C107.03 115.991 108.199 115.008 110.016 114.929C112.003 114.845 113.914 116.006 114.56 117.975C115.859 121.953 117.022 125.973 118.254 129.972C118.498 130.762 118.245 131.112 117.421 131.085C117.019 131.073 116.617 131.085 115.966 131.085ZM110.335 124.776C111.891 124.785 112.131 124.517 111.775 123.042C111.519 121.983 111.203 120.937 110.895 119.89C110.813 119.613 110.697 119.293 110.311 119.326C110.016 119.35 109.921 119.622 109.848 119.854C109.52 120.895 109.182 121.935 108.899 122.988C108.518 124.405 108.826 124.77 110.332 124.779L110.335 124.776Z" fill="url(#paint3_linear_43_2109)"/>
<path d="M8.6133 126.027C9.50809 122.867 10.3907 119.706 11.2977 116.548C11.6324 115.387 14.8768 114.573 15.7624 115.408C16.1337 115.758 15.9329 116.171 15.8233 116.527C14.5877 120.578 13.3885 124.64 12.0524 128.657C11.3524 130.762 10.3663 131.356 8.40026 131.344C6.40069 131.332 5.31417 130.639 4.62635 128.555C3.33287 124.628 2.16417 120.659 0.934606 116.711C0.608954 115.662 1.01374 115.264 2.07895 115.2C4.95809 115.025 4.99156 115.01 5.81939 117.782C6.64417 120.538 7.43548 123.307 8.242 126.066C8.36374 126.051 8.48548 126.039 8.60721 126.024L8.6133 126.027Z" fill="url(#paint4_linear_43_2109)"/>
<path d="M124.983 121.242C124.983 122.587 124.974 123.932 124.983 125.274C124.999 127.083 125.105 127.18 126.986 127.177C128.14 127.177 129.296 127.171 130.45 127.159C132.014 127.141 131.828 128.308 131.871 129.267C131.913 130.223 131.764 131.098 130.462 131.082C128.203 131.058 125.942 131.119 123.687 131.031C121.94 130.962 121.082 130.16 120.701 128.422C120.552 127.747 120.482 127.044 120.476 126.354C120.455 123.166 120.488 119.981 120.461 116.793C120.452 115.738 120.86 115.201 121.958 115.237C122.509 115.255 123.063 115.237 123.614 115.228C124.563 115.21 124.98 115.692 124.974 116.609C124.965 118.153 124.974 119.698 124.974 121.239H124.987L124.983 121.242Z" fill="url(#paint5_linear_43_2109)"/>
<path d="M18.267 122.281C18.267 120.152 18.2975 118.46 18.2549 116.768C18.2275 115.685 18.7053 115.2 19.7735 115.236C19.9744 115.242 20.1753 115.23 20.3762 115.227C22.6679 115.197 22.7744 115.296 22.7805 117.528C22.7866 120.215 22.814 122.905 22.7683 125.592C22.7501 126.732 23.164 127.242 24.3479 127.188C25.6505 127.128 26.9562 127.188 28.2618 127.146C29.1231 127.118 29.607 127.378 29.5218 128.331C29.4731 128.874 29.5005 129.426 29.5005 129.971C29.5005 130.713 29.1109 131.069 28.3835 131.066C26.0248 131.063 23.6631 131.127 21.3105 131.015C19.8101 130.943 18.8483 130.068 18.5135 128.539C18.0266 126.316 18.4101 124.069 18.2701 122.278L18.267 122.281Z" fill="url(#paint6_linear_43_2109)"/>
<path d="M56.5359 122.095C56.5359 120.403 56.5177 118.708 56.542 117.016C56.5633 115.4 56.8586 115.264 59.0499 115.204C60.3646 115.167 60.8273 115.653 60.7968 116.944C60.7329 119.782 60.8212 122.62 60.7603 125.457C60.7329 126.745 61.1833 127.276 62.5073 127.195C63.8068 127.113 65.1155 127.189 66.4212 127.155C67.952 127.119 67.7207 128.208 67.7238 129.131C67.7268 130.063 67.9246 131.118 66.3999 131.091C64.1903 131.049 61.9807 131.124 59.7742 131.04C57.7777 130.964 56.6607 129.71 56.5451 127.623C56.539 127.523 56.539 127.424 56.539 127.324C56.539 125.581 56.539 123.838 56.539 122.095H56.5359Z" fill="url(#paint7_linear_43_2109)"/>
<path d="M19.5179 33.1622C22.8597 33.8227 25.7571 34.7093 28.6605 35.5598C29.3879 35.7739 29.7927 36.3801 30.1823 36.9712C39.3705 50.8804 48.5497 64.7927 57.744 78.6989C60.3279 82.6044 62.9423 86.4919 65.5627 90.3733C66.4362 91.6671 66.634 91.646 67.5258 90.2858C76.4919 76.6541 85.4488 63.0163 94.4271 49.3906C97.0597 45.3946 99.7653 41.4498 102.398 37.4568C103.192 36.2504 104.233 35.5146 105.642 35.1708C107.657 34.6762 109.644 34.076 111.653 33.5512C112.113 33.4306 112.594 33.1562 113.184 33.4939C112.402 35.2009 111.248 36.6636 110.235 38.2017C101.558 51.363 92.8475 64.5001 84.1523 77.6493C78.5979 86.0485 73.0527 94.4568 67.4953 102.853C66.4971 104.364 66.4605 104.364 65.511 102.925C50.4579 80.1555 35.4079 57.3827 20.361 34.6098C20.1175 34.2419 19.9136 33.8468 19.5149 33.1592L19.5179 33.1622Z" fill="url(#paint8_linear_43_2109)"/>
<path d="M33.3751 36.7841C36.376 37.6075 39.1638 38.3343 41.9273 39.1425C43.1021 39.4864 44.1673 39.4441 45.3269 39.034C49.5482 37.5471 53.9247 36.8354 58.3804 36.4102C61.3721 36.1237 64.3486 36.1598 67.3312 36.193C74.4925 36.2684 81.5838 36.8927 88.3586 39.4441C89.0008 39.6854 89.5456 39.5346 90.1238 39.3718C92.8051 38.6238 95.4834 37.8608 98.1708 37.137C98.5665 37.0314 99.1051 36.6695 99.4034 37.1641C99.6256 37.5321 99.1934 37.897 98.9773 38.2227C91.8251 49.1341 84.6699 60.0425 77.5056 70.9449C74.2156 75.9543 70.9043 80.9486 67.5991 85.9459C66.5673 87.5051 66.5551 87.5021 65.5599 85.9941C55.2943 70.4383 45.0317 54.8854 34.766 39.3295C34.276 38.5846 33.6247 37.9271 33.3691 36.7781L33.3751 36.7841ZM66.5917 42.7887C59.6556 42.6711 53.4317 43.5608 47.3295 45.3854C46.1364 45.7413 46.1608 46.2298 46.7482 47.0773C47.9869 48.8506 49.2225 50.627 50.4308 52.4214C55.3704 59.7741 60.2947 67.1389 65.2373 74.4916C66.2538 76.0056 66.7864 76.0206 67.7725 74.5368C73.7347 65.5706 79.8917 56.7341 85.6225 47.6141C86.353 46.45 86.1308 46.0248 84.8465 45.6327C78.7078 43.7659 72.4899 42.5083 66.5917 42.7857V42.7887Z" fill="url(#paint9_linear_43_2109)"/>
<path d="M27.985 12.7116C28.7459 12.6995 29.1872 13.0795 29.6407 13.357C32.0146 14.8076 34.635 15.4832 37.3498 15.9597C39.7207 16.3759 41.1937 17.8567 41.7628 20.194C41.8328 20.4835 41.9667 20.8394 41.6441 21.0052C41.4798 21.0897 41.1633 20.96 40.9472 20.8575C40.2867 20.5498 39.5715 20.1759 39.0785 20.9962C38.6402 21.72 39.2915 22.1905 39.7267 22.667C41.8054 24.9379 44.4776 26.093 47.4694 26.4429C51.9098 26.9616 55.6198 23.3486 55.8785 18.4719C55.9759 16.6564 55.6807 14.9192 54.7159 13.4052C52.065 9.26143 53.5289 5.41921 55.4159 1.57397C55.5224 1.35381 55.6837 1.06127 55.9667 1.18492C56.1615 1.26937 56.3563 1.53778 56.3989 1.75191C56.9133 4.26715 58.7241 5.62429 60.8089 6.80651C62.7689 7.91635 63.5876 9.51477 63.0459 10.9654C62.8602 11.466 62.6807 12.1356 61.9594 11.2911C61.0554 10.2356 60.0846 10.3532 59.2963 11.5143C58.1946 13.1338 58.3285 15.9537 59.8654 17.546C61.4328 19.1716 62.0659 21.3943 63.6668 22.9656C63.8433 23.1375 63.9863 23.4029 63.7094 23.614C63.4902 23.7829 63.2102 23.7497 62.9972 23.6019C62.3794 23.1676 61.7737 22.7152 61.1711 22.2538C60.812 21.9794 60.462 21.5662 59.9872 21.9673C59.5641 22.3262 59.7437 22.8148 59.9263 23.2279C60.7054 24.9892 62.2272 25.8427 63.9772 26.3735C66.6981 27.1998 69.1694 26.666 71.4246 24.9832C71.8385 24.6756 72.1794 24.3197 72.4411 23.8794C72.785 23.3033 73.1928 22.6278 72.6237 22.091C71.9572 21.4606 71.4337 22.1784 70.965 22.5825C70.3502 23.1103 69.7933 23.7075 68.8437 23.3516C70.3715 21.2103 71.5798 18.9062 73.2324 16.8675C74.4133 15.4108 74.4772 13.5922 73.7133 11.8611C73.0955 10.4618 72.0485 10.1873 70.8372 11.1222C70.1524 11.653 69.9424 11.2941 69.7537 10.7724C69.3398 9.62334 69.9363 8.72159 70.5967 7.87715C71.2602 7.02667 72.2098 6.49588 73.1259 5.97111C74.7359 5.04826 75.9259 3.84794 76.355 1.99318C76.4281 1.67651 76.4676 1.20905 76.8815 1.15175C77.405 1.08238 77.4689 1.60715 77.6576 1.93588C79.8094 5.71175 79.9555 9.43334 77.9072 13.3992C75.7494 17.5762 76.6502 21.7652 79.9037 24.8354C81.1881 26.0478 82.725 26.6298 84.4781 26.461C87.4789 26.1714 90.1633 25.0676 92.4915 23.1556C92.7594 22.9354 92.9967 22.6579 93.1885 22.3654C93.4381 21.9824 93.6481 21.5451 93.2828 21.1168C92.9785 20.7579 92.5707 20.8424 92.1567 20.9238C90.8754 21.1802 90.5559 20.8243 91.0033 19.5878C91.4507 18.3513 92.2602 17.4043 93.5233 16.9248C94.3724 16.6021 95.2337 16.3065 96.1528 16.213C98.8189 15.9386 101.308 15.1816 103.454 13.5138C103.685 13.3329 103.938 13.0132 104.239 13.2032C104.635 13.4475 104.379 13.8425 104.276 14.1562C103.342 17.0092 101.193 18.9544 99.0472 20.8725C94.2202 25.1852 91.055 30.4268 89.9655 36.8054C89.7737 37.9364 89.512 38.0238 88.4741 37.6197C84.1981 35.9549 79.7089 35.3186 75.1437 34.9175C70.9894 34.5525 66.8441 34.649 62.6989 34.6762C56.2559 34.7214 49.8433 35.1225 43.7776 37.6106C42.7276 38.0419 42.402 37.5111 42.2254 36.6576C41.775 34.4922 41.3063 32.3298 40.4237 30.2851C39.0694 27.1576 37.2189 24.3559 34.7446 21.9824C32.7359 20.0552 30.8915 17.9954 29.3333 15.6883C28.7398 14.8106 28.2376 13.8908 27.9789 12.7056L27.985 12.7116Z" fill="url(#paint10_linear_43_2109)"/>
<path d="M88.1116 12.0576C89.3381 14.0541 89.6607 15.8697 89.1403 17.7697C88.559 19.8868 87.5759 21.9437 88.7111 24.1754C88.9394 24.6248 88.5894 24.9384 88.1968 25.1194C86.3342 25.9819 84.4381 26.2443 82.4903 25.3757C81.5042 24.9354 81.495 24.3956 82.262 23.6929C83.0746 22.9449 83.9085 22.2 84.6116 21.3556C85.6616 20.101 85.5216 19.3289 84.3316 18.2733C83.4155 17.4621 84.1398 16.7141 84.6968 16.2587C86.0663 15.1429 87.3629 14.0029 88.1116 12.0576Z" fill="url(#paint11_linear_43_2109)"/>
<path d="M44.995 11.4873C45.8198 13.2968 46.8333 14.5695 48.3367 15.4291C48.8815 15.7397 49.1402 16.3308 49.3411 16.9008C49.5937 17.6186 49.6028 18.1976 48.5254 18.1373C47.5059 18.08 47.3598 18.6651 47.5972 19.5216C48.0354 21.0929 49.335 21.9433 50.4337 22.9627C50.8233 23.3246 51.5537 23.5116 51.4046 24.1751C51.2524 24.8446 50.5311 24.9441 49.9528 25.104C48.1907 25.5956 46.5502 25.1613 44.9494 24.4314C44.4807 24.2173 44.2189 23.9579 44.4928 23.3789C45.3085 21.6538 44.992 19.9619 44.292 18.2821C43.3576 16.0352 43.6559 13.8849 44.992 11.4873H44.995Z" fill="url(#paint12_linear_43_2109)"/>
<defs>
<linearGradient id="paint0_linear_43_2109" x1="68.5971" y1="123.301" x2="85.4914" y2="123.301" gradientUnits="userSpaceOnUse">
<stop stop-color="#AC652D"/>
<stop offset="0.51" stop-color="#F8D675"/>
<stop offset="1" stop-color="#B47033"/>
</linearGradient>
<linearGradient id="paint1_linear_43_2109" x1="87.8775" y1="123.44" x2="100.891" y2="123.44" gradientUnits="userSpaceOnUse">
<stop stop-color="#AC652D"/>
<stop offset="0.51" stop-color="#F8D675"/>
<stop offset="1" stop-color="#B47033"/>
</linearGradient>
<linearGradient id="paint2_linear_43_2109" x1="38.5704" y1="123.289" x2="53.8973" y2="123.289" gradientUnits="userSpaceOnUse">
<stop stop-color="#AC652D"/>
<stop offset="0.51" stop-color="#F8D675"/>
<stop offset="1" stop-color="#B47033"/>
</linearGradient>
<linearGradient id="paint3_linear_43_2109" x1="102.605" y1="123.042" x2="118.343" y2="123.042" gradientUnits="userSpaceOnUse">
<stop stop-color="#AC652D"/>
<stop offset="0.51" stop-color="#F8D675"/>
<stop offset="1" stop-color="#B47033"/>
</linearGradient>
<linearGradient id="paint4_linear_43_2109" x1="0.825041" y1="123.207" x2="15.9785" y2="123.207" gradientUnits="userSpaceOnUse">
<stop stop-color="#AC652D"/>
<stop offset="0.51" stop-color="#F8D675"/>
<stop offset="1" stop-color="#B47033"/>
</linearGradient>
<linearGradient id="paint5_linear_43_2109" x1="120.461" y1="123.157" x2="131.877" y2="123.157" gradientUnits="userSpaceOnUse">
<stop stop-color="#AC652D"/>
<stop offset="0.51" stop-color="#F8D675"/>
<stop offset="1" stop-color="#B47033"/>
</linearGradient>
<linearGradient id="paint6_linear_43_2109" x1="18.2518" y1="123.153" x2="29.5309" y2="123.153" gradientUnits="userSpaceOnUse">
<stop stop-color="#AC652D"/>
<stop offset="0.51" stop-color="#F8D675"/>
<stop offset="1" stop-color="#B47033"/>
</linearGradient>
<linearGradient id="paint7_linear_43_2109" x1="56.5299" y1="123.147" x2="67.7329" y2="123.147" gradientUnits="userSpaceOnUse">
<stop stop-color="#AC652D"/>
<stop offset="0.51" stop-color="#F8D675"/>
<stop offset="1" stop-color="#B47033"/>
</linearGradient>
<linearGradient id="paint8_linear_43_2109" x1="19.5179" y1="68.5806" x2="113.187" y2="68.5806" gradientUnits="userSpaceOnUse">
<stop stop-color="#AC652D"/>
<stop offset="0.51" stop-color="#F8D675"/>
<stop offset="1" stop-color="#B47033"/>
</linearGradient>
<linearGradient id="paint9_linear_43_2109" x1="33.3751" y1="61.647" x2="99.4704" y2="61.647" gradientUnits="userSpaceOnUse">
<stop stop-color="#AC652D"/>
<stop offset="0.51" stop-color="#F8D675"/>
<stop offset="1" stop-color="#B47033"/>
</linearGradient>
<linearGradient id="paint10_linear_43_2109" x1="27.985" y1="19.4943" x2="104.455" y2="19.4943" gradientUnits="userSpaceOnUse">
<stop stop-color="#AC652D"/>
<stop offset="0.51" stop-color="#F8D675"/>
<stop offset="1" stop-color="#B47033"/>
</linearGradient>
<linearGradient id="paint11_linear_43_2109" x1="81.7172" y1="18.9821" x2="89.3776" y2="18.9821" gradientUnits="userSpaceOnUse">
<stop stop-color="#AC652D"/>
<stop offset="0.51" stop-color="#F8D675"/>
<stop offset="1" stop-color="#B47033"/>
</linearGradient>
<linearGradient id="paint12_linear_43_2109" x1="43.7533" y1="18.3997" x2="51.4259" y2="18.3997" gradientUnits="userSpaceOnUse">
<stop stop-color="#AC652D"/>
<stop offset="0.51" stop-color="#F8D675"/>
<stop offset="1" stop-color="#B47033"/>
</linearGradient>
</defs>
</svg>
