<svg width="45" height="45" viewBox="0 0 45 45" fill="none" xmlns="http://www.w3.org/2000/svg">
<g clip-path="url(#clip0_790_69)">
<path d="M26.0537 44.548C24.4545 44.5408 23.1858 43.2775 23.2105 41.7184C23.2352 40.1612 24.5368 38.8786 26.0825 38.8888C27.6508 38.898 28.9411 40.1908 28.9267 41.7357C28.9112 43.3061 27.6354 44.5561 26.0547 44.549L26.0537 44.548ZM24.7552 41.6929C24.751 42.5786 25.2505 43.1184 26.0835 43.1306C26.8703 43.1418 27.382 42.5878 27.3831 41.7255C27.3851 40.8316 26.8836 40.2929 26.0526 40.2969C25.2227 40.301 24.7582 40.8 24.7541 41.6939L24.7552 41.6929Z" fill="url(#paint0_linear_790_69)"/>
<path d="M29.7371 41.7122C29.7371 41.0061 29.7474 40.299 29.733 39.5929C29.7258 39.2357 29.8504 39.0653 30.2314 39.0735C30.9769 39.0908 31.7245 39.0684 32.47 39.0929C32.918 39.1071 33.3319 39.2449 33.6666 39.5714C34.2556 40.1469 34.2875 40.8306 33.7346 41.448C33.6141 41.5827 33.4473 41.6459 33.6872 41.8704C34.441 42.5765 34.2134 43.7561 33.2578 44.1398C32.2198 44.5561 31.1241 44.452 30.0419 44.4204C29.735 44.4112 29.7371 44.1571 29.7371 43.9327C29.7371 43.1929 29.7371 42.452 29.7371 41.7122ZM31.8326 40.1857C31.6102 40.2714 31.223 40.0571 31.1087 40.4816C31.0541 40.6847 31.0006 40.9653 31.2034 41.0878C31.5649 41.3071 31.9819 41.2327 32.3753 41.1388C32.5977 41.0857 32.6853 40.9082 32.6894 40.6816C32.6935 40.4265 32.5854 40.2633 32.3279 40.2224C32.1796 40.199 32.0272 40.199 31.8326 40.1857ZM31.8851 42.3122C31.6184 42.3694 31.2766 42.202 31.154 42.601C31.0232 43.0275 31.2405 43.2347 31.8254 43.2316C32.2054 43.2296 32.6492 43.2316 32.6523 42.7275C32.6554 42.2214 32.1827 42.3786 31.8851 42.3122Z" fill="url(#paint1_linear_790_69)"/>
<path d="M18.2245 42.751C18.2245 43.6296 17.9897 43.9612 17.136 44.2918C15.751 44.8286 14.2733 44.4327 13.4979 43.2143C12.4548 41.5755 13.3198 39.4796 15.1981 39C16.2288 38.7367 17.1134 39.0102 17.8363 39.7724C18.2121 40.1694 18.1545 40.3276 17.69 40.6214C17.2781 40.8816 16.9517 41.049 16.5069 40.6102C16.1372 40.2459 15.611 40.3286 15.1733 40.5806C14.6925 40.8571 14.5668 41.3469 14.5926 41.848C14.6338 42.6469 15.0992 43.101 15.8252 43.1276C16.5728 43.1541 16.7447 43.0122 16.7787 42.2694C16.7931 41.9541 16.9085 41.7969 17.2349 41.8122C17.3533 41.8184 17.4738 41.8224 17.5912 41.8102C18.0793 41.7561 18.2863 41.9673 18.2265 42.449C18.2142 42.549 18.2245 42.651 18.2245 42.752V42.751Z" fill="url(#paint2_linear_790_69)"/>
<path d="M39.2365 44.352C38.8452 44.4184 38.4663 44.3388 38.4127 43.7633C38.4096 43.7306 38.4014 43.6908 38.3808 43.6684C37.9452 43.2102 37.3902 43.5153 36.8928 43.4459C36.623 43.4082 36.4469 43.549 36.379 43.8255C36.3285 44.0327 36.3058 44.2969 36.0288 44.3255C35.6262 44.3673 35.205 44.4296 34.8199 44.2929C34.6304 44.2255 34.752 43.9918 34.7983 43.8378C35.1906 42.5469 35.5809 41.2561 35.9856 39.9694C36.2132 39.2449 36.6086 38.9122 37.2234 38.8857C37.8958 38.8571 38.5425 39.25 38.7608 39.9163C39.2005 41.2622 39.5938 42.6224 40.0109 43.9755C40.0933 44.2429 40.0078 44.3612 39.7287 44.352C39.5928 44.348 39.4569 44.352 39.2365 44.352ZM37.3315 42.2173C37.8577 42.2204 37.939 42.1296 37.8185 41.6306C37.732 41.2725 37.625 40.9184 37.5209 40.5643C37.4931 40.4704 37.454 40.3622 37.3232 40.3735C37.2234 40.3816 37.1914 40.4735 37.1667 40.552C37.0555 40.9041 36.9412 41.2561 36.8454 41.6122C36.7167 42.0918 36.8207 42.2153 37.3304 42.2184L37.3315 42.2173Z" fill="url(#paint3_linear_790_69)"/>
<path d="M2.91419 42.6408C3.21693 41.5714 3.51556 40.502 3.82242 39.4337C3.9357 39.0408 5.03341 38.7653 5.33307 39.048C5.45869 39.1663 5.39073 39.3061 5.35366 39.4265C4.93558 40.7969 4.52986 42.1714 4.0778 43.5306C3.84096 44.2429 3.50732 44.4439 2.8421 44.4398C2.16556 44.4357 1.79794 44.201 1.56522 43.4959C1.12757 42.1673 0.73215 40.8245 0.316131 39.4888C0.205948 39.1337 0.342905 38.999 0.703317 38.9776C1.67746 38.9184 1.68879 38.9133 1.96888 39.851C2.24794 40.7837 2.51567 41.7204 2.78856 42.6541C2.82975 42.649 2.87094 42.6449 2.91213 42.6398L2.91419 42.6408Z" fill="url(#paint4_linear_790_69)"/>
<path d="M42.2876 41.0214C42.2876 41.4765 42.2846 41.9316 42.2876 42.3857C42.2928 42.998 42.3288 43.0306 42.9652 43.0296C43.3555 43.0296 43.7468 43.0276 44.1371 43.0235C44.6664 43.0174 44.6035 43.4122 44.618 43.7367C44.6324 44.0602 44.5819 44.3561 44.1412 44.351C43.3771 44.3429 42.612 44.3633 41.849 44.3337C41.2579 44.3102 40.9675 44.0388 40.8388 43.451C40.7883 43.2225 40.7646 42.9847 40.7626 42.751C40.7554 41.6725 40.7667 40.5949 40.7574 39.5163C40.7543 39.1592 40.8923 38.9776 41.2641 38.9898C41.4505 38.9959 41.6379 38.9898 41.8243 38.9867C42.1455 38.9806 42.2866 39.1439 42.2846 39.4541C42.2815 39.9765 42.2846 40.499 42.2846 41.0204H42.2887L42.2876 41.0214Z" fill="url(#paint5_linear_790_69)"/>
<path d="M6.18055 41.3735C6.18055 40.6531 6.19085 40.0806 6.17643 39.5082C6.16716 39.1418 6.32883 38.9776 6.69028 38.9898C6.75824 38.9918 6.8262 38.9878 6.89417 38.9867C7.66957 38.9765 7.70561 39.0102 7.70767 39.7653C7.70973 40.6745 7.71899 41.5847 7.70355 42.4939C7.69737 42.8796 7.83742 43.052 8.23799 43.0337C8.67872 43.0133 9.12048 43.0337 9.56224 43.0194C9.85366 43.0102 10.0174 43.098 9.98856 43.4204C9.97208 43.6041 9.98135 43.7908 9.98135 43.9755C9.98135 44.2265 9.84954 44.3469 9.60343 44.3459C8.80538 44.3449 8.00629 44.3663 7.2103 44.3286C6.70263 44.3041 6.37723 44.0082 6.26396 43.4908C6.0992 42.7388 6.22895 41.9786 6.18158 41.3725L6.18055 41.3735Z" fill="url(#paint6_linear_790_69)"/>
<path d="M19.1286 41.3102C19.1286 40.7378 19.1224 40.1643 19.1307 39.5918C19.1379 39.0449 19.2378 38.999 19.9792 38.9786C20.424 38.9663 20.5805 39.1306 20.5703 39.5673C20.5486 40.5276 20.5785 41.4878 20.5579 42.448C20.5486 42.8837 20.701 43.0633 21.149 43.0357C21.5887 43.0082 22.0315 43.0337 22.4732 43.0224C22.9912 43.0102 22.9129 43.3786 22.914 43.6908C22.915 44.0061 22.9819 44.3633 22.466 44.3541C21.7184 44.3398 20.9708 44.3653 20.2243 44.3367C19.5487 44.3112 19.1708 43.8867 19.1317 43.1806C19.1296 43.1469 19.1296 43.1133 19.1296 43.0796C19.1296 42.4898 19.1296 41.9 19.1296 41.3102H19.1286Z" fill="url(#paint7_linear_790_69)"/>
<path d="M6.60377 11.2204C7.73444 11.4439 8.71476 11.7439 9.69714 12.0316C9.94325 12.1041 10.0802 12.3092 10.212 12.5092C13.3208 17.2153 16.4265 21.9225 19.5374 26.6276C20.4117 27.949 21.2962 29.2643 22.1828 30.5776C22.4784 31.0153 22.5453 31.0082 22.847 30.548C25.8807 25.9357 28.9112 21.3214 31.949 16.7112C32.8397 15.3592 33.7552 14.0245 34.6459 12.6735C34.9146 12.2653 35.2668 12.0163 35.7436 11.9C36.4253 11.7327 37.0977 11.5296 37.7773 11.352C37.9328 11.3112 38.0955 11.2184 38.2953 11.3327C38.0307 11.9102 37.6404 12.4051 37.2975 12.9255C34.3617 17.3786 31.4145 21.8235 28.4725 26.2725C26.5933 29.1143 24.717 31.9592 22.8367 34.8C22.499 35.3112 22.4866 35.3112 22.1653 34.8245C17.0722 27.1204 11.9801 19.4153 6.88901 11.7102C6.80664 11.5857 6.73764 11.452 6.60275 11.2194L6.60377 11.2204Z" fill="url(#paint8_linear_790_69)"/>
<path d="M11.2922 12.4459C12.3076 12.7245 13.2508 12.9704 14.1858 13.2439C14.5833 13.3602 14.9437 13.3459 15.336 13.2071C16.7643 12.7041 18.2451 12.4633 19.7526 12.3194C20.7649 12.2225 21.772 12.2347 22.7811 12.2459C25.2041 12.2714 27.6034 12.4827 29.8957 13.3459C30.1129 13.4276 30.2973 13.3765 30.4929 13.3214C31.4001 13.0684 32.3063 12.8102 33.2156 12.5653C33.3494 12.5296 33.5317 12.4071 33.6326 12.5745C33.7078 12.699 33.5616 12.8225 33.4884 12.9327C31.0685 16.6245 28.6476 20.3153 26.2236 24.0041C25.1104 25.699 23.99 27.3888 22.8717 29.0796C22.5227 29.6071 22.5185 29.6061 22.1818 29.0959C18.7085 23.8327 15.2362 18.5704 11.7628 13.3071C11.597 13.0551 11.3767 12.8327 11.2902 12.4439L11.2922 12.4459ZM22.5309 14.4776C20.1841 14.4378 18.0783 14.7388 16.0136 15.3561C15.61 15.4765 15.6182 15.6418 15.8169 15.9286C16.236 16.5286 16.6541 17.1296 17.0629 17.7367C18.7342 20.2245 20.4003 22.7163 22.0727 25.2041C22.4166 25.7163 22.5968 25.7214 22.9304 25.2194C24.9477 22.1857 27.0309 19.1959 28.9699 16.1102C29.217 15.7163 29.1419 15.5725 28.7073 15.4398C26.6303 14.8082 24.5265 14.3827 22.5309 14.4765V14.4776Z" fill="url(#paint9_linear_790_69)"/>
<path d="M9.46854 4.30102C9.72597 4.29694 9.87529 4.42551 10.0287 4.51939C10.8319 5.01021 11.7185 5.23878 12.6371 5.4C13.4392 5.54082 13.9376 6.04184 14.1302 6.83266C14.1539 6.93061 14.1992 7.05102 14.09 7.10714C14.0344 7.13572 13.9273 7.09184 13.8542 7.05715C13.6308 6.95306 13.3888 6.82653 13.222 7.10408C13.0737 7.34898 13.2941 7.50817 13.4413 7.66939C14.1446 8.43776 15.0487 8.82857 16.061 8.94694C17.5634 9.12245 18.8187 7.9 18.9062 6.25C18.9391 5.63572 18.8392 5.04796 18.5128 4.53572C17.6159 3.13368 18.1112 1.83368 18.7497 0.532655C18.7857 0.458165 18.8403 0.359185 18.936 0.401022C19.0019 0.429593 19.0679 0.52041 19.0823 0.592859C19.2563 1.44388 19.869 1.90306 20.5744 2.30306C21.2375 2.67857 21.5145 3.21939 21.3312 3.71021C21.2684 3.87959 21.2077 4.10612 20.9636 3.82041C20.6578 3.46327 20.3293 3.50306 20.0626 3.89592C19.6898 4.44388 19.7351 5.39796 20.2552 5.93674C20.7855 6.48674 20.9997 7.23878 21.5413 7.77041C21.601 7.82857 21.6494 7.91837 21.5557 7.9898C21.4816 8.04694 21.3868 8.03572 21.3148 7.98572C21.1057 7.83878 20.9008 7.68572 20.6969 7.52959C20.5754 7.43674 20.457 7.29694 20.2963 7.43265C20.1532 7.55408 20.214 7.71939 20.2757 7.85919C20.5394 8.4551 21.0542 8.74388 21.6463 8.92347C22.5669 9.20306 23.4031 9.02245 24.1661 8.45306C24.3062 8.34898 24.4215 8.22857 24.5101 8.07959C24.6264 7.8847 24.7644 7.65612 24.5719 7.47449C24.3463 7.26123 24.1692 7.50408 24.0106 7.64082C23.8026 7.81939 23.6142 8.02143 23.2929 7.90102C23.8098 7.17653 24.2187 6.39694 24.7778 5.70715C25.1773 5.21429 25.199 4.59898 24.9405 4.01327C24.7315 3.5398 24.3772 3.44694 23.9674 3.76327C23.7357 3.94286 23.6646 3.82143 23.6008 3.6449C23.4608 3.25612 23.6626 2.95102 23.886 2.66531C24.1105 2.37755 24.4318 2.19796 24.7418 2.02041C25.2865 1.70817 25.6891 1.30204 25.8343 0.674491C25.859 0.567349 25.8724 0.409185 26.0125 0.389797C26.1896 0.366328 26.2112 0.543879 26.2751 0.655103C27.0031 1.93265 27.0525 3.19184 26.3595 4.53368C25.6294 5.94694 25.9342 7.36429 27.035 8.40306C27.4696 8.81327 27.9896 9.01021 28.5827 8.95306C29.5981 8.8551 30.5063 8.48164 31.2941 7.8347C31.3847 7.76021 31.465 7.66633 31.5299 7.56735C31.6143 7.43776 31.6854 7.2898 31.5618 7.1449C31.4588 7.02347 31.3208 7.05204 31.1808 7.07959C30.7473 7.16633 30.6391 7.04592 30.7905 6.62755C30.9419 6.20919 31.2158 5.88878 31.6431 5.72653C31.9304 5.61735 32.2219 5.51735 32.5328 5.48572C33.4349 5.39286 34.2772 5.13674 35.0032 4.57245C35.0815 4.51123 35.1669 4.40306 35.2689 4.46735C35.4028 4.55 35.3162 4.68368 35.2812 4.7898C34.9651 5.7551 34.2381 6.41327 33.5121 7.06225C31.879 8.52143 30.808 10.2949 30.4394 12.4531C30.3745 12.8357 30.2859 12.8653 29.9348 12.7286C28.488 12.1653 26.9691 11.95 25.4245 11.8143C24.0189 11.6908 22.6164 11.7235 21.2138 11.7327C19.0339 11.748 16.8642 11.8837 14.8119 12.7255C14.4566 12.8714 14.3465 12.6918 14.2867 12.4031C14.1343 11.6704 13.9757 10.9388 13.6771 10.2469C13.2189 9.18878 12.5928 8.24082 11.7556 7.43776C11.076 6.78572 10.4519 6.08878 9.92472 5.30817C9.72391 5.01123 9.55401 4.7 9.46648 4.29898L9.46854 4.30102Z" fill="url(#paint10_linear_790_69)"/>
<path d="M29.8122 4.07959C30.2272 4.7551 30.3364 5.36939 30.1603 6.01225C29.9636 6.72857 29.631 7.42449 30.0151 8.17959C30.0923 8.33163 29.9739 8.43776 29.8411 8.49898C29.2109 8.79082 28.5693 8.87959 27.9103 8.58572C27.5767 8.43674 27.5736 8.25408 27.8331 8.01633C28.108 7.76327 28.3902 7.51123 28.628 7.22551C28.9833 6.80102 28.9359 6.5398 28.5333 6.18265C28.2233 5.90816 28.4684 5.6551 28.6569 5.50102C29.1203 5.12347 29.5589 4.73776 29.8122 4.07959Z" fill="url(#paint11_linear_790_69)"/>
<path d="M15.2238 3.88674C15.5029 4.49898 15.8458 4.9296 16.3545 5.22041C16.5388 5.32551 16.6263 5.52551 16.6943 5.71837C16.7797 5.96123 16.7828 6.15715 16.4183 6.13674C16.0733 6.11735 16.0239 6.31531 16.1042 6.60511C16.2525 7.13674 16.6922 7.42449 17.064 7.76939C17.1958 7.89184 17.4429 7.95511 17.3924 8.1796C17.341 8.40613 17.0969 8.4398 16.9013 8.49388C16.305 8.66021 15.75 8.51327 15.2083 8.26633C15.0498 8.19388 14.9612 8.10613 15.0539 7.91021C15.3299 7.32653 15.2228 6.75409 14.9859 6.18572C14.6698 5.42551 14.7707 4.69796 15.2228 3.88674H15.2238Z" fill="url(#paint12_linear_790_69)"/>
</g>
<defs>
<linearGradient id="paint0_linear_790_69" x1="23.2095" y1="41.7184" x2="28.9256" y2="41.7184" gradientUnits="userSpaceOnUse">
<stop stop-color="#AC652D"/>
<stop offset="0.51" stop-color="#F8D675"/>
<stop offset="1" stop-color="#B47033"/>
</linearGradient>
<linearGradient id="paint1_linear_790_69" x1="29.733" y1="41.7653" x2="34.1362" y2="41.7653" gradientUnits="userSpaceOnUse">
<stop stop-color="#AC652D"/>
<stop offset="0.51" stop-color="#F8D675"/>
<stop offset="1" stop-color="#B47033"/>
</linearGradient>
<linearGradient id="paint2_linear_790_69" x1="13.05" y1="41.7143" x2="18.2358" y2="41.7143" gradientUnits="userSpaceOnUse">
<stop stop-color="#AC652D"/>
<stop offset="0.51" stop-color="#F8D675"/>
<stop offset="1" stop-color="#B47033"/>
</linearGradient>
<linearGradient id="paint3_linear_790_69" x1="34.7159" y1="41.6306" x2="40.0407" y2="41.6306" gradientUnits="userSpaceOnUse">
<stop stop-color="#AC652D"/>
<stop offset="0.51" stop-color="#F8D675"/>
<stop offset="1" stop-color="#B47033"/>
</linearGradient>
<linearGradient id="paint4_linear_790_69" x1="0.27906" y1="41.6867" x2="5.40618" y2="41.6867" gradientUnits="userSpaceOnUse">
<stop stop-color="#AC652D"/>
<stop offset="0.51" stop-color="#F8D675"/>
<stop offset="1" stop-color="#B47033"/>
</linearGradient>
<linearGradient id="paint5_linear_790_69" x1="40.7574" y1="41.6694" x2="44.62" y2="41.6694" gradientUnits="userSpaceOnUse">
<stop stop-color="#AC652D"/>
<stop offset="0.51" stop-color="#F8D675"/>
<stop offset="1" stop-color="#B47033"/>
</linearGradient>
<linearGradient id="paint6_linear_790_69" x1="6.1754" y1="41.6684" x2="9.99165" y2="41.6684" gradientUnits="userSpaceOnUse">
<stop stop-color="#AC652D"/>
<stop offset="0.51" stop-color="#F8D675"/>
<stop offset="1" stop-color="#B47033"/>
</linearGradient>
<linearGradient id="paint7_linear_790_69" x1="19.1265" y1="41.6663" x2="22.917" y2="41.6663" gradientUnits="userSpaceOnUse">
<stop stop-color="#AC652D"/>
<stop offset="0.51" stop-color="#F8D675"/>
<stop offset="1" stop-color="#B47033"/>
</linearGradient>
<linearGradient id="paint8_linear_790_69" x1="6.60377" y1="23.2041" x2="38.2963" y2="23.2041" gradientUnits="userSpaceOnUse">
<stop stop-color="#AC652D"/>
<stop offset="0.51" stop-color="#F8D675"/>
<stop offset="1" stop-color="#B47033"/>
</linearGradient>
<linearGradient id="paint9_linear_790_69" x1="11.2922" y1="20.8582" x2="33.6553" y2="20.8582" gradientUnits="userSpaceOnUse">
<stop stop-color="#AC652D"/>
<stop offset="0.51" stop-color="#F8D675"/>
<stop offset="1" stop-color="#B47033"/>
</linearGradient>
<linearGradient id="paint10_linear_790_69" x1="9.46854" y1="6.59592" x2="35.342" y2="6.59592" gradientUnits="userSpaceOnUse">
<stop stop-color="#AC652D"/>
<stop offset="0.51" stop-color="#F8D675"/>
<stop offset="1" stop-color="#B47033"/>
</linearGradient>
<linearGradient id="paint11_linear_790_69" x1="27.6487" y1="6.42245" x2="30.2406" y2="6.42245" gradientUnits="userSpaceOnUse">
<stop stop-color="#AC652D"/>
<stop offset="0.51" stop-color="#F8D675"/>
<stop offset="1" stop-color="#B47033"/>
</linearGradient>
<linearGradient id="paint12_linear_790_69" x1="14.8037" y1="6.22551" x2="17.3997" y2="6.22551" gradientUnits="userSpaceOnUse">
<stop stop-color="#AC652D"/>
<stop offset="0.51" stop-color="#F8D675"/>
<stop offset="1" stop-color="#B47033"/>
</linearGradient>
<clipPath id="clip0_790_69">
<rect width="45" height="45" fill="white"/>
</clipPath>
</defs>
</svg>
